<?xml version="1.0" encoding="UTF-8"?>
<!-- Generator: visioncortex VTracer 0.6.4 -->
<svg version="1.1" xmlns="http://www.w3.org/2000/svg" width="518" height="518">
<path d="M0,0 L518,0 L518,518 L0,518 Z " fill="#A78477" transform="translate(0,0)"/>
<path d="M0,0 L518,0 L518,460 L516,456 L515,451 L513,451 L508,430 L504,418 L501,408 L495,392 L492,384 L486,368 L484,363 L482,356 L477,342 L472,331 L472,328 L469,327 L469,324 L467,324 L464,314 L456,298 L452,288 L447,279 L447,276 L445,276 L443,268 L441,268 L437,259 L431,248 L429,243 L426,242 L422,235 L419,228 L414,220 L410,216 L405,208 L397,198 L392,194 L390,190 L387,188 L384,183 L379,177 L375,174 L375,172 L370,170 L366,163 L358,157 L354,153 L349,150 L340,141 L337,139 L332,138 L332,142 L329,141 L329,139 L327,139 L330,148 L330,152 L327,152 L330,158 L333,161 L338,171 L342,175 L345,183 L345,186 L347,186 L350,198 L355,216 L356,222 L358,256 L358,272 L356,272 L354,266 L352,266 L352,264 L349,264 L347,275 L344,278 L342,283 L337,283 L337,285 L331,287 L328,290 L329,286 L324,283 L323,280 L323,270 L326,254 L325,228 L324,218 L328,219 L332,223 L334,224 L334,229 L339,228 L339,235 L341,235 L345,248 L347,249 L346,242 L344,240 L344,226 L343,220 L341,220 L338,214 L330,208 L326,202 L324,197 L322,195 L322,187 L320,188 L316,200 L311,211 L307,226 L302,238 L295,254 L291,266 L289,266 L287,274 L284,280 L282,288 L280,296 L278,296 L275,309 L272,311 L265,312 L268,317 L270,321 L270,324 L262,324 L260,317 L262,312 L243,313 L234,315 L202,317 L190,318 L187,321 L178,322 L178,318 L178,310 L180,310 L180,306 L192,304 L197,301 L200,301 L200,299 L208,296 L213,292 L231,287 L232,286 L240,286 L240,284 L252,281 L257,279 L261,279 L261,277 L263,277 L265,272 L266,269 L268,269 L268,267 L274,266 L274,259 L249,260 L249,262 L231,264 L216,264 L216,266 L213,268 L202,269 L197,272 L194,272 L194,274 L184,276 L179,277 L175,276 L175,280 L173,280 L173,283 L168,282 L169,273 L165,275 L160,275 L160,273 L150,271 L148,269 L148,266 L144,265 L138,262 L137,268 L129,277 L127,283 L126,285 L123,285 L123,290 L118,292 L118,280 L119,276 L121,276 L124,267 L125,244 L126,235 L128,235 L128,224 L129,221 L131,202 L132,198 L134,168 L142,136 L145,128 L147,128 L150,117 L154,112 L156,112 L157,108 L160,101 L164,94 L166,94 L169,85 L175,79 L176,74 L162,73 L120,73 L105,74 L96,75 L96,77 L86,79 L80,79 L80,81 L66,85 L53,87 L49,88 L49,90 L37,94 L32,94 L32,96 L29,97 L25,101 L14,105 L8,110 L4,112 L0,112 Z " fill="#B36733" transform="translate(0,0)"/>
<path d="M0,0 L295,0 L295,404 L293,403 L291,392 L289,392 L285,378 L281,370 L279,364 L279,360 L277,360 L271,344 L267,334 L267,330 L265,330 L263,325 L255,309 L252,299 L245,285 L242,280 L237,272 L233,264 L233,261 L230,260 L227,253 L226,248 L223,248 L220,237 L219,232 L216,232 L210,222 L206,217 L203,208 L201,208 L201,206 L196,204 L195,200 L193,200 L193,197 L191,197 L189,192 L187,192 L187,190 L183,189 L179,182 L174,178 L174,176 L170,175 L167,173 L166,168 L163,168 L163,166 L159,164 L157,160 L153,158 L150,154 L150,152 L143,150 L140,145 L139,142 L135,140 L131,136 L131,134 L129,134 L125,130 L123,129 L123,126 L118,125 L113,122 L113,120 L111,120 L111,118 L107,117 L107,115 L102,113 L100,112 L100,110 L95,109 L95,107 L91,105 L81,99 L78,97 L78,95 L73,94 L71,92 L73,91 L82,92 L85,93 L85,96 L96,95 L97,48 L82,49 L81,63 L80,65 L66,65 L65,63 L65,56 L58,57 L57,64 L49,65 L48,49 L41,49 L41,16 L18,17 L18,25 L17,30 L16,30 L16,17 L2,17 L0,15 Z " fill="#C57D47" transform="translate(223,0)"/>
<path d="M0,0 L42,0 L54,1 L56,2 L56,7 L49,14 L47,20 L44,23 L41,29 L38,36 L36,40 L34,40 L32,44 L27,56 L25,56 L24,61 L19,80 L15,96 L13,126 L11,138 L10,149 L9,152 L6,152 L6,160 L2,179 L0,184 L-3,211 L-4,213 L-6,230 L-8,230 L-8,235 L-11,240 L-16,240 L-16,244 L-18,244 L-20,251 L-25,255 L-28,260 L-35,269 L-38,275 L-42,275 L-45,286 L-56,286 L-58,290 L-66,291 L-70,296 L-71,298 L-71,304 L-66,309 L-65,324 L-58,332 L-58,334 L-55,334 L-51,340 L-47,345 L-42,349 L-41,353 L-35,354 L-30,356 L-30,359 L-22,359 L-14,363 L-14,365 L-9,366 L-9,375 L-12,377 L-19,377 L-20,383 L-22,387 L-23,400 L-28,401 L-43,393 L-46,392 L-46,390 L-50,389 L-55,385 L-58,384 L-58,382 L-63,382 L-63,377 L-58,377 L-61,372 L-69,368 L-74,363 L-78,357 L-80,355 L-80,352 L-82,352 L-83,347 L-85,347 L-85,339 L-84,335 L-88,336 L-89,340 L-89,348 L-84,357 L-80,361 L-75,370 L-72,372 L-72,375 L-70,375 L-67,380 L-64,383 L-64,385 L-62,385 L-61,392 L-59,392 L-56,395 L-56,398 L-43,398 L-35,400 L-32,402 L-32,406 L-34,406 L-36,413 L-39,414 L-41,421 L-49,437 L-51,442 L-53,442 L-54,446 L-120,446 L-120,40 L-112,37 L-104,31 L-94,27 L-92,27 L-91,24 L-88,24 L-88,22 L-76,19 L-71,18 L-71,16 L-67,14 L-54,12 L-44,9 L-40,9 L-40,7 L-24,5 L-24,3 L-15,1 Z " fill="#CCA1AB" transform="translate(120,72)"/>
<path d="M0,0 L1,0 L1,14 L-1,14 L-1,25 L1,39 L3,41 L3,45 L7,46 L7,48 L10,48 L9,42 L11,42 L12,38 L13,38 L15,29 L19,22 L20,18 L25,18 L28,17 L30,19 L25,22 L26,27 L29,27 L30,23 L33,22 L36,23 L39,22 L39,33 L43,40 L46,43 L46,49 L48,49 L47,52 L40,53 L34,50 L34,52 L29,51 L29,49 L31,49 L30,47 L27,47 L24,42 L24,38 L20,40 L20,54 L21,56 L21,63 L15,63 L15,56 L5,57 L4,62 L3,64 L-1,64 L-2,68 L-5,73 L-7,78 L-15,83 L-16,86 L-18,86 L-16,99 L-16,110 L-18,110 L-19,129 L7,129 L6,122 L11,120 L15,121 L15,125 L13,125 L13,127 L31,123 L35,122 L43,122 L43,132 L42,136 L40,136 L39,148 L33,169 L31,176 L25,192 L20,203 L18,203 L18,208 L14,215 L13,220 L-257,220 L-256,216 L-254,216 L-253,211 L-244,194 L-242,188 L-239,186 L-237,180 L-235,180 L-236,176 L-240,174 L-259,172 L-259,169 L-262,168 L-262,166 L-264,166 L-265,159 L-267,159 L-273,152 L-273,149 L-275,149 L-275,146 L-279,144 L-283,138 L-283,135 L-286,134 L-292,124 L-293,122 L-293,114 L-291,110 L-287,109 L-288,121 L-286,121 L-285,126 L-283,126 L-280,131 L-275,138 L-272,140 L-272,142 L-268,143 L-263,146 L-261,148 L-261,151 L-266,151 L-266,156 L-261,156 L-261,158 L-257,159 L-252,163 L-249,164 L-249,166 L-245,167 L-231,174 L-226,174 L-226,161 L-222,151 L-213,149 L-213,140 L-217,139 L-217,137 L-221,136 L-225,134 L-233,133 L-233,130 L-238,129 L-244,127 L-248,121 L-253,117 L-258,110 L-258,108 L-261,108 L-269,98 L-270,83 L-275,78 L-275,72 L-270,67 L-268,65 L-259,65 L-258,75 L-257,80 L-253,85 L-246,86 L-246,88 L-242,89 L-238,93 L-237,96 L-230,102 L-230,105 L-227,106 L-226,111 L-218,119 L-211,123 L-205,123 L-204,118 L-198,115 L-194,111 L-188,108 L-185,105 L-180,103 L-177,99 L-172,97 L-166,93 L-159,88 L-155,83 L-155,78 L-150,79 L-150,76 L-123,75 L-121,73 L-121,68 L-123,64 L-125,64 L-129,59 L-139,56 L-143,53 L-142,49 L-141,48 L-132,48 L-132,46 L-121,45 L-112,42 L-97,40 L-88,36 L-77,35 L-65,32 L-57,32 L-57,42 L-42,40 L-34,36 L-27,30 L-24,28 L-22,24 L-20,23 L-19,20 L-13,16 L-11,12 L-6,9 L-3,2 Z " fill="#372A2C" transform="translate(323,298)"/>
<path d="M0,0 L67,0 L102,2 L119,5 L128,8 L139,12 L151,13 L158,16 L170,19 L173,22 L173,24 L179,25 L179,27 L185,29 L199,36 L207,38 L207,40 L213,42 L215,44 L222,46 L226,50 L230,51 L230,53 L235,55 L237,56 L237,58 L241,59 L241,61 L243,61 L243,63 L248,65 L253,67 L253,70 L258,72 L259,75 L261,75 L261,77 L264,78 L271,86 L273,88 L273,91 L278,92 L281,95 L285,100 L290,105 L293,107 L293,109 L296,109 L297,114 L301,116 L304,117 L304,119 L307,120 L307,122 L310,123 L313,127 L313,130 L317,131 L317,133 L319,133 L321,138 L323,138 L323,141 L325,141 L327,145 L331,147 L331,149 L333,149 L338,159 L344,167 L346,173 L349,173 L353,185 L353,189 L356,189 L360,197 L361,201 L363,202 L370,216 L375,225 L378,229 L383,240 L386,250 L392,262 L395,267 L395,271 L397,271 L400,281 L405,292 L407,297 L407,301 L409,301 L413,313 L417,321 L419,328 L419,333 L421,333 L424,344 L425,345 L425,401 L423,397 L422,392 L420,392 L415,371 L411,359 L408,349 L402,333 L399,325 L393,309 L391,304 L389,297 L384,283 L379,272 L379,269 L376,268 L376,265 L374,265 L371,255 L363,239 L359,229 L354,220 L354,217 L352,217 L350,209 L348,209 L344,200 L338,189 L336,184 L333,183 L329,176 L326,169 L321,161 L317,157 L312,149 L304,139 L299,135 L297,131 L294,129 L291,124 L286,118 L282,115 L282,113 L277,111 L273,104 L265,98 L261,94 L256,91 L247,82 L244,80 L239,79 L239,83 L236,82 L236,80 L234,80 L237,89 L237,93 L234,93 L237,99 L240,102 L245,112 L249,116 L252,124 L252,127 L254,127 L257,139 L262,157 L263,163 L265,197 L265,213 L263,213 L261,207 L259,207 L259,205 L256,205 L254,216 L251,219 L249,224 L244,224 L244,226 L238,228 L235,231 L236,227 L231,224 L230,221 L230,211 L233,195 L232,169 L231,159 L235,160 L239,164 L241,165 L241,170 L246,169 L246,176 L248,176 L252,189 L254,190 L253,183 L251,181 L251,167 L250,161 L248,161 L245,155 L237,149 L233,143 L231,138 L229,136 L229,128 L227,129 L223,141 L218,152 L214,167 L209,179 L202,195 L198,207 L196,207 L194,215 L191,221 L189,229 L187,237 L185,237 L182,250 L179,252 L172,253 L175,258 L177,262 L177,265 L169,265 L167,258 L169,253 L150,254 L141,256 L109,258 L97,259 L94,262 L85,263 L85,259 L85,251 L87,251 L87,247 L99,245 L104,242 L107,242 L107,240 L115,237 L120,233 L138,228 L139,227 L147,227 L147,225 L159,222 L164,220 L168,220 L168,218 L170,218 L172,213 L173,210 L175,210 L175,208 L181,207 L181,200 L159,200 L159,195 L149,193 L149,191 L138,189 L126,185 L117,182 L104,178 L100,176 L100,169 L105,152 L109,138 L112,132 L119,133 L126,136 L132,138 L133,141 L132,142 L124,143 L122,146 L120,146 L121,159 L129,159 L129,157 L136,157 L145,166 L156,168 L157,164 L162,155 L163,150 L175,151 L175,143 L166,141 L157,137 L144,134 L134,129 L118,125 L115,123 L116,117 L118,111 L121,111 L123,100 L126,91 L128,88 L131,88 L132,83 L137,84 L138,102 L142,103 L153,103 L155,107 L157,107 L157,110 L153,110 L153,108 L147,108 L147,116 L155,116 L156,124 L162,123 L164,120 L165,112 L167,112 L168,116 L170,117 L170,120 L172,120 L172,117 L174,117 L176,111 L179,103 L181,103 L182,98 L187,98 L187,96 L183,95 L183,92 L193,93 L205,97 L205,99 L215,102 L227,107 L230,115 L231,122 L235,123 L237,130 L243,137 L246,139 L246,143 L249,144 L251,148 L251,151 L253,151 L256,157 L257,157 L256,149 L254,143 L251,133 L251,130 L249,130 L247,120 L236,111 L232,105 L231,101 L228,99 L228,97 L226,97 L222,86 L220,85 L219,82 L219,69 L221,69 L217,62 L217,60 L208,58 L209,71 L211,77 L211,83 L213,83 L213,88 L215,88 L215,93 L217,93 L217,96 L214,96 L214,94 L205,92 L198,89 L197,87 L196,57 L195,56 L194,58 L193,86 L185,85 L174,79 L174,77 L172,77 L171,75 L170,59 L167,52 L157,47 L126,47 L125,50 L116,52 L113,53 L112,58 L109,61 L106,61 L105,67 L103,67 L101,73 L97,74 L96,79 L94,79 L93,85 L89,97 L86,96 L86,87 L88,56 L83,61 L81,61 L80,71 L76,85 L76,123 L77,127 L79,127 L79,125 L81,125 L81,136 L77,143 L74,150 L70,150 L68,150 L66,161 L61,168 L57,178 L55,181 L53,181 L53,183 L51,183 L54,147 L53,135 L50,134 L45,135 L47,109 L49,102 L51,85 L53,85 L54,77 L56,77 L57,73 L60,66 L62,66 L62,59 L66,53 L68,53 L70,41 L72,41 L72,39 L74,38 L75,33 L78,33 L80,28 L82,26 L84,20 L84,14 L82,13 L5,13 L5,11 L7,11 L7,9 L-9,11 L-21,14 L-26,16 L-40,19 L-45,19 L-45,17 L-43,17 L-43,15 L-38,13 L-31,13 L-31,11 L-24,10 L-23,7 L-5,3 L0,3 Z " fill="#84503A" transform="translate(93,59)"/>
<path d="M0,0 L5,1 L12,8 L17,11 L25,18 L29,21 L31,27 L36,29 L41,34 L48,42 L49,45 L53,49 L58,54 L69,67 L73,75 L77,79 L83,88 L86,95 L88,99 L92,103 L98,115 L101,119 L102,125 L104,125 L106,130 L106,133 L108,133 L116,150 L123,165 L128,176 L128,181 L130,181 L131,184 L133,185 L138,198 L142,207 L145,214 L147,223 L153,238 L156,248 L160,257 L165,270 L169,285 L172,294 L174,303 L174,308 L176,308 L179,317 L179,375 L174,375 L172,368 L167,366 L166,348 L165,342 L163,342 L160,323 L158,327 L155,336 L151,338 L151,326 L153,326 L152,312 L151,309 L153,307 L150,300 L143,296 L143,294 L138,292 L138,289 L133,289 L133,287 L131,287 L131,284 L110,281 L107,280 L105,274 L92,271 L92,269 L105,270 L105,259 L103,247 L96,247 L93,246 L92,265 L91,271 L79,271 L77,269 L77,263 L74,263 L74,260 L76,260 L77,254 L79,254 L79,249 L82,241 L87,228 L90,224 L89,219 L86,213 L82,213 L83,216 L85,216 L86,225 L81,232 L76,233 L76,243 L74,254 L73,255 L64,254 L61,251 L61,245 L65,241 L70,241 L68,230 L67,221 L63,224 L60,230 L55,233 L51,233 L46,225 L44,224 L43,220 L41,219 L41,246 L39,246 L38,244 L36,244 L35,250 L37,250 L37,252 L39,252 L40,262 L35,263 L34,268 L30,268 L30,254 L32,247 L33,236 L32,235 L32,220 L35,217 L37,213 L39,212 L36,203 L36,198 L39,199 L39,201 L42,201 L42,195 L43,193 L48,194 L48,191 L46,191 L47,188 L51,192 L53,197 L58,202 L59,205 L64,207 L64,209 L66,209 L64,201 L63,200 L62,188 L59,182 L56,179 L55,171 L51,169 L50,165 L51,161 L49,161 L49,159 L45,161 L41,156 L38,151 L38,149 L36,149 L37,160 L33,161 L30,150 L27,141 L25,137 L25,133 L23,133 L22,127 L22,116 L24,114 L29,132 L29,134 L32,135 L32,137 L34,137 L34,115 L32,115 L29,81 L28,69 L29,62 L26,62 L25,54 L17,45 L14,34 L12,33 L14,33 L11,27 L11,20 L7,14 L7,12 L5,12 L2,4 Z " fill="#DFC0C5" transform="translate(339,143)"/>
<path d="M0,0 L10,0 L10,2 L8,2 L8,4 L19,3 L85,3 L88,5 L88,11 L85,18 L81,24 L78,24 L78,29 L75,30 L75,32 L73,32 L73,39 L71,44 L67,48 L65,57 L63,57 L61,64 L59,68 L57,68 L56,76 L54,76 L54,87 L52,99 L51,100 L49,121 L48,126 L55,124 L58,132 L57,151 L55,172 L54,174 L56,174 L56,172 L58,172 L60,168 L64,158 L68,152 L70,141 L74,141 L77,140 L81,130 L83,127 L84,116 L82,116 L82,118 L80,118 L78,115 L78,76 L83,57 L84,52 L86,52 L88,48 L92,46 L91,68 L90,78 L90,87 L92,88 L93,81 L97,70 L99,69 L100,65 L103,64 L106,58 L108,58 L109,52 L112,52 L113,49 L115,49 L116,44 L119,42 L128,40 L129,38 L140,37 L160,37 L171,43 L174,50 L175,68 L177,68 L177,70 L181,71 L188,75 L196,77 L196,49 L199,46 L200,48 L201,78 L202,80 L217,85 L217,87 L220,87 L220,84 L218,84 L218,79 L216,79 L216,74 L214,74 L211,62 L211,49 L216,49 L220,51 L224,57 L224,60 L222,60 L223,76 L226,77 L229,86 L229,88 L231,88 L235,92 L238,100 L247,108 L251,111 L252,114 L252,121 L254,121 L258,134 L261,143 L260,151 L257,147 L256,142 L254,142 L251,135 L249,134 L248,130 L243,126 L238,120 L238,114 L233,113 L231,104 L230,98 L220,95 L210,91 L208,90 L208,88 L198,86 L186,83 L186,86 L190,87 L190,89 L185,89 L184,94 L182,94 L181,101 L177,108 L175,108 L175,111 L173,111 L173,108 L170,107 L170,103 L168,103 L168,111 L165,115 L159,115 L158,107 L154,108 L150,107 L149,102 L150,99 L156,99 L156,101 L160,101 L160,98 L158,98 L156,95 L142,95 L140,93 L139,75 L135,75 L134,79 L131,80 L129,84 L125,100 L124,102 L121,102 L120,108 L118,114 L129,117 L142,121 L150,125 L163,128 L169,131 L178,133 L179,134 L179,140 L178,142 L171,142 L166,141 L166,146 L161,155 L159,159 L148,158 L139,149 L132,148 L132,150 L124,150 L123,148 L123,137 L125,137 L127,133 L135,132 L134,129 L128,127 L115,123 L114,128 L111,136 L106,153 L104,160 L103,167 L107,168 L123,173 L136,177 L152,182 L152,184 L160,185 L162,186 L162,191 L166,192 L159,192 L159,194 L141,196 L126,196 L126,198 L123,200 L112,201 L107,204 L104,204 L104,206 L94,208 L89,209 L85,208 L85,212 L83,212 L83,215 L78,214 L79,205 L75,207 L70,207 L70,205 L60,203 L58,201 L58,198 L54,197 L48,194 L47,200 L39,209 L37,215 L36,217 L33,217 L33,222 L28,224 L28,212 L29,208 L31,208 L34,199 L35,176 L36,167 L38,167 L38,156 L39,153 L41,134 L42,130 L44,100 L52,68 L55,60 L57,60 L60,49 L64,44 L66,44 L67,40 L70,33 L74,26 L76,26 L79,17 L85,11 L86,6 L72,5 L30,5 L15,6 L6,7 L6,9 L-4,11 L-10,11 L-10,13 L-24,17 L-37,19 L-41,20 L-41,22 L-53,26 L-58,26 L-58,28 L-61,29 L-65,33 L-76,37 L-82,42 L-86,44 L-90,44 L-90,31 L-81,27 L-69,22 L-58,17 L-43,12 L-34,8 L-21,5 L-16,3 Z " fill="#856057" transform="translate(90,68)"/>
<path d="M0,0 L10,0 L12,2 L12,7 L28,9 L36,11 L36,14 L38,14 L38,16 L43,16 L44,19 L48,21 L48,23 L53,25 L57,28 L59,35 L56,36 L58,39 L58,53 L56,53 L57,64 L60,62 L63,50 L66,50 L68,64 L68,69 L70,69 L72,75 L72,93 L77,94 L79,96 L79,102 L-94,102 L-86,83 L-82,74 L-74,52 L-71,43 L-69,36 L-66,19 L-64,19 L-64,12 L-62,12 L-61,16 L-46,18 L-45,21 L-31,20 L-29,8 L-18,8 L-11,6 L-2,6 L-2,3 L0,3 Z " fill="#747987" transform="translate(434,416)"/>
<path d="M0,0 L5,1 L6,19 L10,20 L21,20 L23,24 L25,24 L25,27 L21,27 L21,25 L15,25 L15,33 L23,33 L24,41 L30,40 L32,37 L33,29 L35,29 L36,33 L38,34 L38,37 L40,37 L40,34 L42,34 L44,28 L47,20 L49,20 L50,15 L55,15 L55,13 L51,12 L51,9 L61,10 L73,14 L73,16 L83,19 L95,24 L97,30 L96,40 L91,39 L91,33 L87,33 L87,44 L85,44 L85,52 L84,55 L79,54 L80,62 L78,66 L76,78 L74,78 L74,82 L77,82 L80,73 L83,64 L86,55 L89,48 L91,48 L91,45 L93,45 L93,53 L88,64 L85,72 L82,84 L77,96 L70,112 L66,124 L64,124 L62,132 L59,138 L57,146 L55,154 L53,154 L50,167 L47,169 L40,170 L43,175 L45,179 L45,182 L37,182 L35,175 L37,170 L18,171 L9,173 L-23,175 L-35,176 L-38,179 L-47,180 L-47,176 L-47,168 L-45,168 L-45,164 L-33,162 L-28,159 L-25,159 L-25,157 L-17,154 L-12,150 L6,145 L7,144 L15,144 L15,142 L27,139 L32,137 L36,137 L36,135 L38,135 L40,130 L41,127 L43,127 L43,125 L49,124 L49,117 L27,117 L27,112 L17,110 L17,108 L6,106 L-6,102 L-15,99 L-28,95 L-32,93 L-32,86 L-27,69 L-23,55 L-20,49 L-13,50 L-6,53 L0,55 L1,58 L0,59 L-8,60 L-10,63 L-12,63 L-11,76 L-3,76 L-3,74 L4,74 L13,83 L24,85 L25,81 L30,72 L31,67 L43,68 L43,60 L34,58 L25,54 L12,51 L2,46 L-14,42 L-17,40 L-16,34 L-14,28 L-11,28 L-9,17 L-6,8 L-4,5 L-1,5 Z " fill="#301F1C" transform="translate(225,142)"/>
<path d="M0,0 L4,1 L4,5 L2,5 L2,7 L20,3 L24,2 L32,2 L32,12 L31,16 L29,16 L28,28 L22,49 L20,56 L14,72 L9,83 L7,83 L7,88 L3,95 L2,100 L-187,100 L-186,95 L-181,94 L-177,96 L-177,89 L-174,88 L-173,81 L-173,66 L-176,65 L-176,57 L-173,54 L-174,50 L-171,49 L-164,51 L-164,54 L-155,55 L-150,59 L-146,61 L-145,74 L-143,79 L-141,80 L-140,83 L-134,84 L-134,81 L-131,80 L-130,78 L-132,78 L-131,67 L-130,62 L-126,62 L-127,60 L-127,54 L-120,54 L-118,73 L-116,73 L-112,81 L-112,83 L-110,83 L-110,85 L-108,85 L-110,74 L-112,72 L-113,56 L-115,56 L-117,43 L-113,43 L-108,60 L-105,72 L-102,80 L-99,81 L-100,78 L-98,78 L-98,82 L-100,82 L-100,85 L-98,85 L-97,87 L-94,86 L-92,81 L-88,73 L-85,71 L-90,69 L-90,65 L-81,65 L-79,67 L-78,74 L-67,75 L-65,76 L-64,83 L-53,83 L-49,81 L-48,78 L-45,78 L-47,71 L-49,70 L-51,64 L-56,63 L-56,60 L-59,60 L-62,49 L-67,46 L-65,41 L-63,39 L-54,40 L-48,44 L-43,46 L-33,50 L-24,50 L-20,48 L-20,41 L-18,40 L-14,30 L-12,28 L-4,27 L-4,25 L-11,23 L-9,18 L-6,18 L-6,16 L-2,16 L-2,12 L-4,12 L-4,10 L-12,10 L-12,9 L-4,9 L-5,2 Z M-175,52 Z " fill="#535463" transform="translate(334,418)"/>
<path d="M0,0 L67,0 L102,2 L119,5 L128,8 L139,12 L151,13 L158,16 L170,19 L173,22 L173,24 L179,25 L179,27 L185,29 L199,36 L207,38 L207,40 L213,42 L215,44 L219,45 L219,47 L221,47 L221,49 L225,51 L227,52 L227,54 L232,56 L232,58 L227,57 L221,54 L215,49 L205,47 L195,43 L195,41 L190,40 L184,38 L174,35 L166,32 L159,31 L158,32 L161,32 L161,34 L168,36 L179,40 L179,42 L187,43 L187,61 L181,61 L175,52 L171,50 L171,48 L165,47 L165,45 L158,44 L127,43 L123,42 L123,34 L119,34 L119,37 L117,37 L116,42 L114,47 L111,49 L109,56 L106,58 L104,63 L102,63 L101,69 L99,74 L97,74 L96,79 L94,79 L93,85 L89,97 L86,96 L86,87 L88,56 L83,61 L81,61 L80,71 L76,85 L76,123 L77,127 L79,127 L79,125 L81,125 L81,136 L77,143 L74,150 L70,150 L68,150 L66,161 L61,168 L57,178 L55,181 L53,181 L53,183 L51,183 L54,147 L53,135 L50,134 L45,135 L47,109 L49,102 L51,85 L53,85 L54,77 L56,77 L57,73 L60,66 L62,66 L62,59 L66,53 L68,53 L70,41 L72,41 L72,39 L74,38 L75,33 L78,33 L80,28 L82,26 L84,20 L84,14 L82,13 L5,13 L5,11 L7,11 L7,9 L-9,11 L-21,14 L-26,16 L-40,19 L-45,19 L-45,17 L-43,17 L-43,15 L-38,13 L-31,13 L-31,11 L-24,10 L-23,7 L-5,3 L0,3 Z " fill="#603B33" transform="translate(93,59)"/>
<path d="M0,0 L1,0 L1,14 L-1,14 L-1,25 L1,39 L3,41 L3,45 L7,46 L7,48 L10,48 L9,42 L11,42 L12,38 L13,38 L15,29 L19,22 L20,18 L25,18 L28,17 L30,19 L25,22 L26,27 L29,27 L30,23 L33,22 L36,23 L39,22 L39,33 L43,40 L46,43 L46,49 L48,49 L47,52 L40,53 L34,50 L34,52 L29,51 L29,49 L31,49 L30,47 L27,47 L24,42 L24,38 L20,40 L20,54 L21,56 L21,63 L15,63 L15,56 L5,57 L4,62 L3,64 L-1,64 L-2,68 L-5,73 L-7,78 L-15,83 L-16,86 L-18,86 L-16,99 L-16,110 L-18,110 L-19,129 L-9,129 L-6,131 L-14,132 L-49,132 L-65,128 L-67,127 L-67,124 L-79,122 L-83,120 L-83,118 L-85,118 L-90,105 L-91,102 L-89,102 L-89,81 L-91,81 L-91,78 L-86,77 L-86,79 L-81,78 L-80,74 L-74,74 L-73,73 L-72,64 L-70,63 L-65,50 L-63,48 L-61,41 L-59,36 L-57,36 L-57,42 L-42,40 L-34,36 L-27,30 L-24,28 L-22,24 L-20,23 L-19,20 L-13,16 L-11,12 L-6,9 L-3,2 Z " fill="#7F5647" transform="translate(323,298)"/>
<path d="M0,0 L2,0 L3,8 L6,11 L9,18 L13,23 L19,27 L21,30 L21,33 L23,33 L25,39 L25,53 L27,55 L27,62 L24,61 L21,51 L21,48 L19,48 L19,41 L14,42 L14,37 L9,35 L7,32 L4,31 L6,41 L7,67 L4,83 L1,93 L0,95 L-3,95 L-6,104 L-11,112 L-11,118 L-15,122 L-17,122 L-19,128 L-21,131 L-23,131 L-24,135 L-26,135 L-28,141 L-31,144 L-32,147 L-37,149 L-40,149 L-40,151 L-45,153 L-54,153 L-54,143 L-72,146 L-74,147 L-85,148 L-94,152 L-109,154 L-118,157 L-129,157 L-129,159 L-138,160 L-139,164 L-134,167 L-125,170 L-122,173 L-122,175 L-120,175 L-117,179 L-117,184 L-120,187 L-147,187 L-147,190 L-151,190 L-152,196 L-155,197 L-157,201 L-165,207 L-170,210 L-174,210 L-174,205 L-172,205 L-170,199 L-163,198 L-165,194 L-165,187 L-160,183 L-161,174 L-162,170 L-162,162 L-160,160 L-143,160 L-143,158 L-157,159 L-160,158 L-159,153 L-157,140 L-154,133 L-142,130 L-141,127 L-142,134 L-133,133 L-130,130 L-106,128 L-86,127 L-77,125 L-58,125 L-59,130 L-58,136 L-50,137 L-53,130 L-55,128 L-55,125 L-46,122 L-44,112 L-42,109 L-40,109 L-40,103 L-38,99 L-36,90 L-33,85 L-31,79 L-29,79 L-28,72 L-23,60 L-16,45 L-12,33 L-10,24 L-5,13 L-1,1 Z " fill="#9B7B76" transform="translate(320,187)"/>
<path d="M0,0 L110,0 L110,111 L101,108 L98,102 L96,101 L96,96 L94,96 L89,88 L85,86 L82,81 L77,76 L74,70 L74,68 L72,68 L71,65 L67,64 L67,61 L62,60 L62,58 L60,58 L54,51 L54,48 L52,48 L47,43 L44,40 L43,37 L37,34 L37,32 L32,32 L32,30 L30,30 L29,27 L21,20 L13,14 L11,9 L6,6 L0,2 Z " fill="#B27683" transform="translate(408,0)"/>
<path d="M0,0 L2,0 L1,4 L1,12 L6,21 L10,25 L15,34 L18,36 L18,39 L20,39 L23,44 L26,47 L26,49 L28,49 L29,56 L31,56 L34,59 L34,62 L47,62 L55,64 L58,66 L58,70 L56,70 L54,77 L51,78 L49,85 L41,101 L39,106 L37,106 L36,110 L-30,110 L-30,48 L-23,42 L-20,37 L-17,32 L-12,26 L-11,24 L-9,24 L-8,20 L-5,18 L-2,2 L0,2 Z " fill="#AF8882" transform="translate(30,408)"/>
<path d="M0,0 L20,0 L31,6 L34,13 L35,31 L37,31 L37,33 L41,34 L48,38 L56,40 L56,12 L59,9 L60,11 L61,41 L62,43 L77,48 L77,50 L80,50 L80,47 L78,47 L78,42 L76,42 L76,37 L74,37 L71,25 L71,12 L76,12 L80,14 L84,20 L84,23 L82,23 L83,39 L86,40 L89,49 L89,51 L91,51 L95,55 L98,63 L107,71 L111,74 L112,77 L112,84 L114,84 L118,97 L121,106 L120,114 L117,110 L116,105 L114,105 L111,98 L109,97 L108,93 L103,89 L98,83 L98,77 L93,76 L91,67 L90,61 L80,58 L70,54 L68,53 L68,51 L58,49 L49,45 L40,41 L28,37 L8,29 L8,27 L6,27 L5,29 L2,28 L-8,28 L-9,32 L-16,36 L-17,41 L-16,52 L-19,51 L-23,65 L-25,65 L-26,71 L-30,85 L-32,88 L-34,88 L-34,84 L-37,83 L-40,80 L-40,84 L-43,84 L-43,89 L-46,92 L-47,100 L-50,103 L-52,103 L-52,108 L-54,108 L-54,114 L-57,120 L-59,122 L-63,122 L-63,127 L-67,128 L-69,134 L-70,145 L-73,150 L-74,151 L-80,151 L-85,147 L-80,152 L-80,154 L-85,153 L-89,149 L-88,144 L-82,137 L-77,127 L-75,127 L-74,123 L-69,117 L-66,111 L-64,111 L-63,107 L-58,99 L-54,89 L-50,81 L-46,71 L-44,67 L-46,67 L-46,55 L-44,47 L-42,47 L-40,34 L-36,25 L-34,21 L-32,21 L-31,15 L-28,15 L-27,12 L-25,12 L-24,7 L-21,5 L-12,3 L-11,1 Z " fill="#A0736C" transform="translate(230,105)"/>
<path d="M0,0 L10,0 L10,2 L8,2 L8,4 L19,3 L85,3 L88,5 L88,11 L85,18 L81,24 L78,24 L78,29 L75,30 L75,32 L73,32 L73,39 L71,44 L67,48 L65,57 L63,57 L61,64 L59,68 L57,68 L56,76 L54,76 L54,87 L52,99 L51,100 L49,121 L48,126 L55,124 L58,132 L57,151 L55,172 L54,174 L56,174 L56,172 L58,172 L60,168 L64,158 L68,152 L70,141 L74,141 L77,140 L81,130 L83,127 L84,116 L82,116 L82,118 L80,118 L78,115 L78,76 L83,57 L84,52 L86,52 L88,48 L92,46 L91,68 L90,78 L90,87 L92,88 L93,81 L97,70 L99,69 L100,65 L102,65 L102,70 L101,71 L100,80 L98,84 L96,84 L95,100 L94,104 L96,104 L93,113 L88,125 L84,132 L81,139 L76,148 L74,148 L72,154 L66,161 L65,164 L63,164 L61,170 L56,178 L52,182 L52,186 L55,188 L54,190 L53,189 L52,195 L48,194 L47,200 L39,209 L37,215 L36,217 L33,217 L33,222 L28,224 L28,212 L29,208 L31,208 L34,199 L35,176 L36,167 L38,167 L38,156 L39,153 L41,134 L42,130 L44,100 L52,68 L55,60 L57,60 L60,49 L64,44 L66,44 L67,40 L70,33 L74,26 L76,26 L79,17 L85,11 L86,6 L72,5 L30,5 L15,6 L6,7 L6,9 L-4,11 L-10,11 L-10,13 L-24,17 L-37,19 L-41,20 L-41,22 L-53,26 L-58,26 L-58,28 L-61,29 L-65,33 L-76,37 L-82,42 L-86,44 L-90,44 L-90,31 L-81,27 L-69,22 L-58,17 L-43,12 L-34,8 L-21,5 L-16,3 Z " fill="#895F5A" transform="translate(90,68)"/>
<path d="M0,0 L10,3 L18,4 L18,7 L10,8 L9,13 L5,13 L3,20 L0,20 L0,22 L2,22 L6,32 L8,36 L10,36 L10,38 L12,38 L14,45 L16,47 L17,38 L23,38 L25,42 L27,43 L27,48 L23,48 L25,64 L24,74 L20,72 L17,66 L15,86 L12,86 L10,91 L6,98 L-2,103 L-6,103 L-5,97 L-2,96 L-1,91 L1,85 L3,84 L2,68 L3,70 L5,70 L7,75 L7,83 L10,84 L10,78 L12,78 L10,61 L8,55 L5,53 L2,48 L2,46 L-3,46 L-3,44 L-6,43 L-6,41 L-12,40 L-13,43 L-18,44 L-18,46 L-20,46 L-20,54 L-22,54 L-22,60 L-25,62 L-26,65 L-32,66 L-33,64 L-41,64 L-45,70 L-51,72 L-52,73 L-71,72 L-72,69 L-74,68 L-74,65 L-78,64 L-78,61 L-94,62 L-94,56 L-88,59 L-82,59 L-81,54 L-75,51 L-71,47 L-65,44 L-62,41 L-57,39 L-54,35 L-49,33 L-43,29 L-36,24 L-32,19 L-32,14 L-27,15 L-27,12 L0,11 L2,9 L2,4 Z " fill="#5F4339" transform="translate(200,362)"/>
<path d="M0,0 L18,0 L18,2 L20,2 L20,6 L16,6 L16,8 L13,9 L12,13 L18,15 L18,17 L9,20 L4,31 L2,31 L2,38 L-2,41 L-11,41 L-21,37 L-31,32 L-35,30 L-41,30 L-44,34 L-43,37 L-39,39 L-37,50 L-34,50 L-34,53 L-30,52 L-27,55 L-27,60 L-24,61 L-23,68 L-26,68 L-27,72 L-31,74 L-40,74 L-43,71 L-43,66 L-56,64 L-59,56 L-68,55 L-67,59 L-62,60 L-67,66 L-72,76 L-74,77 L-76,80 L-76,75 L-78,75 L-78,72 L-76,72 L-76,68 L-77,71 L-81,70 L-86,56 L-86,50 L-81,45 L-80,35 L-79,34 L-72,34 L-71,31 L-69,35 L-65,36 L-63,34 L-63,28 L-64,22 L-62,20 L-54,19 L-45,19 L-34,20 L-32,21 L-32,23 L-12,22 L-5,21 L-5,19 L-12,18 L-13,17 L-39,15 L-40,13 L-37,11 L-40,8 L-38,7 L-8,7 L-8,4 L-40,3 L-42,1 L-3,1 Z " fill="#3F3842" transform="translate(312,428)"/>
<path d="M0,0 L16,0 L16,3 L20,4 L22,6 L22,21 L19,24 L25,24 L25,22 L27,22 L27,19 L34,21 L34,16 L37,16 L36,8 L40,4 L42,4 L42,15 L45,15 L46,20 L43,20 L43,18 L39,17 L39,21 L41,21 L42,26 L45,27 L45,30 L47,30 L48,27 L48,34 L50,34 L49,27 L51,24 L54,24 L56,19 L62,19 L72,21 L76,25 L76,27 L78,27 L78,29 L82,30 L82,27 L78,25 L74,20 L74,18 L82,14 L83,13 L88,13 L89,11 L90,14 L88,14 L88,21 L91,20 L91,25 L98,26 L104,29 L112,29 L112,27 L114,27 L114,30 L112,30 L112,33 L103,34 L96,36 L85,35 L85,43 L83,48 L69,48 L68,46 L53,44 L52,39 L50,39 L50,46 L48,46 L48,53 L45,69 L43,71 L37,91 L30,109 L24,121 L21,128 L16,129 L16,124 L20,117 L21,112 L23,112 L26,102 L31,91 L34,84 L38,67 L41,57 L43,45 L45,45 L46,31 L34,33 L21,36 L16,36 L16,34 L18,34 L17,30 L9,31 L10,38 L-6,39 L-12,35 L-12,19 L-9,19 L-8,14 L-6,7 L-3,5 L-2,2 L0,2 Z " fill="#807A79" transform="translate(320,389)"/>
<path d="M0,0 L18,0 L19,5 L16,8 L12,8 L12,10 L10,10 L9,15 L7,18 L5,18 L5,20 L-6,24 L-16,25 L-16,27 L-24,28 L-32,31 L-43,34 L-49,39 L-56,40 L-56,42 L-67,47 L-76,47 L-76,51 L-78,51 L-78,49 L-86,48 L-86,50 L-99,50 L-99,53 L-102,53 L-102,48 L-100,43 L-91,43 L-89,40 L-88,35 L-78,34 L-78,32 L-82,31 L-83,27 L-90,26 L-90,28 L-88,29 L-106,29 L-109,27 L-109,25 L-113,26 L-112,21 L-115,21 L-115,19 L-112,19 L-113,12 L-114,9 L-109,10 L-110,7 L-108,7 L-106,11 L-96,14 L-96,16 L-87,14 L-87,23 L-83,24 L-83,21 L-81,21 L-81,17 L-74,17 L-70,15 L-62,15 L-62,13 L-54,9 L-43,8 L-40,7 L-40,5 L-22,4 L-16,3 L-7,3 L-7,1 Z " fill="#996E6A" transform="translate(256,259)"/>
<path d="M0,0 L4,2 L7,9 L12,14 L13,17 L18,19 L18,21 L20,21 L20,16 L22,18 L23,25 L25,26 L25,23 L27,22 L27,15 L28,10 L33,11 L33,9 L37,11 L37,13 L43,11 L45,16 L42,15 L46,24 L50,25 L51,34 L60,34 L66,36 L69,39 L69,41 L65,40 L65,50 L61,51 L58,42 L56,41 L57,58 L59,58 L61,63 L63,64 L62,75 L60,83 L52,83 L52,82 L59,82 L59,71 L57,59 L50,59 L47,58 L46,77 L45,83 L33,83 L31,81 L31,75 L28,75 L28,72 L30,72 L31,66 L33,66 L33,61 L36,53 L41,40 L44,36 L43,31 L40,25 L36,25 L37,28 L39,28 L40,37 L35,44 L30,45 L30,55 L28,66 L27,67 L18,66 L15,63 L15,57 L19,53 L24,53 L22,42 L21,33 L17,36 L14,42 L9,45 L5,45 L0,37 L-2,36 L-3,32 L-5,31 L-5,58 L-7,58 L-8,56 L-10,56 L-11,62 L-9,62 L-9,64 L-7,64 L-6,74 L-11,75 L-12,80 L-16,80 L-16,66 L-14,59 L-13,48 L-14,47 L-14,32 L-11,29 L-9,25 L-7,24 L-10,15 L-10,10 L-7,11 L-7,13 L-4,13 L-4,7 L-3,5 L2,6 L2,3 L0,3 Z " fill="#BEA18F" transform="translate(385,331)"/>
<path d="M0,0 L1,3 L2,15 L9,23 L9,25 L12,25 L16,31 L20,36 L25,40 L26,44 L32,45 L37,47 L37,50 L45,50 L53,54 L53,56 L58,57 L58,66 L55,68 L48,68 L47,74 L45,78 L44,91 L39,92 L24,84 L21,83 L21,81 L17,80 L12,76 L9,75 L9,73 L4,73 L4,68 L9,68 L6,63 L-2,59 L-7,54 L-11,48 L-13,46 L-13,43 L-15,43 L-16,38 L-18,38 L-18,30 L-17,26 L-21,27 L-20,25 L-14,25 L-14,23 L-12,22 L-11,16 L-10,9 L-5,8 L-5,3 L0,2 Z " fill="#B48181" transform="translate(53,381)"/>
<path d="M0,0 L4,2 L7,5 L11,6 L11,8 L16,10 L18,11 L18,13 L22,14 L22,16 L24,16 L24,18 L29,20 L34,22 L34,25 L39,27 L40,30 L42,30 L42,32 L45,33 L52,41 L54,43 L54,46 L59,47 L62,50 L66,55 L71,60 L74,62 L74,64 L77,64 L78,69 L82,71 L85,72 L85,74 L88,75 L88,77 L91,78 L94,82 L94,85 L98,86 L98,88 L100,88 L102,93 L104,93 L104,96 L106,96 L108,100 L112,102 L112,104 L114,104 L119,114 L125,122 L127,128 L130,128 L134,140 L134,144 L137,144 L141,152 L142,156 L144,157 L151,171 L156,180 L159,184 L164,195 L167,205 L173,217 L176,222 L176,226 L178,226 L181,236 L186,247 L188,252 L188,256 L190,256 L194,268 L198,276 L200,283 L200,288 L202,288 L205,299 L206,300 L206,330 L204,330 L202,324 L202,316 L200,316 L198,310 L195,299 L193,289 L191,288 L186,270 L183,259 L183,256 L180,256 L178,247 L176,243 L174,243 L172,240 L170,230 L169,225 L167,224 L168,216 L166,216 L166,212 L162,212 L157,200 L153,198 L151,194 L150,187 L147,184 L146,176 L143,175 L138,164 L138,159 L136,159 L136,157 L132,156 L132,152 L130,152 L128,147 L128,144 L125,144 L123,135 L120,131 L117,130 L114,124 L113,120 L111,114 L105,112 L103,109 L103,105 L97,103 L97,100 L95,100 L94,96 L90,95 L84,84 L78,82 L79,77 L77,75 L77,72 L74,72 L74,69 L69,67 L68,62 L64,61 L61,57 L60,52 L54,49 L52,44 L49,44 L47,41 L40,40 L36,36 L36,34 L31,32 L26,25 L27,22 L23,23 L23,19 L20,19 L20,16 L17,16 L17,14 L13,13 L10,10 L8,9 L8,7 L4,5 L2,4 L2,2 L0,2 Z " fill="#9B542C" transform="translate(312,104)"/>
<path d="M0,0 L1,4 L-1,9 L7,9 L19,8 L16,9 L16,11 L-1,12 L-2,13 L-2,21 L0,28 L0,34 L-5,38 L-5,45 L-4,49 L-11,50 L-13,56 L-15,56 L-15,62 L-19,67 L-24,69 L-27,72 L-34,75 L-38,79 L-42,81 L-43,85 L-49,86 L-58,80 L-65,73 L-66,68 L-68,67 L-71,62 L-76,58 L-76,55 L-79,54 L-81,51 L-84,50 L-84,48 L-91,48 L-96,42 L-97,37 L-97,27 L-106,28 L-111,32 L-109,28 L-107,26 L-99,25 L-97,23 L-90,23 L-87,32 L-85,40 L-83,40 L-81,46 L-76,48 L-75,51 L-69,51 L-69,53 L-64,54 L-60,53 L-60,56 L-48,55 L-44,49 L-37,46 L-33,43 L-29,44 L-27,40 L-25,40 L-24,36 L-17,35 L-18,32 L-23,31 L-23,25 L-20,24 L-19,16 L-15,14 L-13,5 L-11,2 L-6,2 L-1,3 Z M-22,35 Z " fill="#97716D" transform="translate(161,336)"/>
<path d="M0,0 L2,0 L1,12 L3,12 L4,17 L6,17 L9,22 L14,29 L17,31 L17,33 L21,34 L26,37 L28,39 L28,42 L23,42 L23,47 L28,47 L28,49 L32,50 L37,54 L40,55 L40,57 L44,58 L58,65 L61,65 L61,67 L55,66 L56,68 L65,68 L66,62 L70,61 L70,59 L68,59 L67,49 L70,49 L75,57 L77,67 L81,73 L82,80 L83,81 L84,96 L86,103 L85,110 L84,111 L32,111 L33,107 L35,107 L36,102 L45,85 L47,79 L50,77 L52,71 L54,71 L53,67 L49,65 L30,63 L30,60 L27,59 L27,57 L25,57 L24,50 L22,50 L16,43 L16,40 L14,40 L14,37 L10,35 L6,29 L6,26 L3,25 L-3,15 L-4,13 L-4,5 L-2,1 Z " fill="#626671" transform="translate(34,407)"/>
<path d="M0,0 L1,4 L-4,22 L-9,37 L-11,48 L-6,48 L2,51 L14,55 L22,58 L32,62 L39,64 L46,66 L47,69 L26,69 L21,66 L20,64 L7,62 L7,64 L1,64 L-1,68 L-2,77 L-6,80 L-13,81 L-13,83 L-17,85 L-24,84 L-24,88 L-26,88 L-26,91 L-31,90 L-30,81 L-34,83 L-39,83 L-39,81 L-49,79 L-51,77 L-51,74 L-55,73 L-58,70 L-57,64 L-51,67 L-37,68 L-36,65 L-34,65 L-33,56 L-31,56 L-31,51 L-29,48 L-27,48 L-24,37 L-21,32 L-19,24 L-18,22 L-13,22 L-12,28 L-17,45 L-15,45 L-12,35 L-7,18 L-1,2 Z " fill="#724137" transform="translate(199,192)"/>
<path d="M0,0 L9,0 L10,10 L11,15 L15,20 L22,21 L22,23 L26,24 L30,28 L31,31 L38,37 L38,40 L41,41 L42,46 L51,55 L52,59 L51,61 L58,60 L67,65 L67,68 L63,70 L57,70 L57,73 L52,72 L43,69 L35,68 L35,65 L30,64 L24,62 L20,56 L15,52 L10,45 L10,43 L7,43 L-1,33 L-2,18 L-7,13 L-7,7 L-2,2 Z " fill="#241515" transform="translate(55,363)"/>
<path d="M0,0 L3,0 L4,4 L5,24 L8,22 L11,10 L14,10 L16,24 L16,29 L18,29 L20,35 L20,53 L25,54 L27,56 L27,62 L-19,62 L-16,26 L-14,24 L-13,16 L-11,16 L-11,11 L-8,5 L-4,5 L-2,1 Z " fill="#787D8B" transform="translate(486,456)"/>
<path d="M0,0 L5,1 L12,8 L17,11 L25,18 L29,21 L28,23 L24,21 L24,19 L22,20 L23,23 L22,25 L24,25 L25,27 L25,33 L29,34 L29,36 L31,36 L37,43 L40,52 L42,60 L42,66 L39,63 L38,57 L36,57 L35,53 L33,53 L39,73 L40,77 L40,89 L42,89 L43,105 L40,101 L39,109 L36,110 L37,116 L37,129 L38,143 L40,152 L38,151 L38,149 L36,149 L37,160 L33,161 L30,150 L27,141 L25,137 L25,133 L23,133 L22,127 L22,116 L24,114 L29,132 L29,134 L32,135 L32,137 L34,137 L34,115 L32,115 L29,81 L28,69 L29,62 L26,62 L25,54 L17,45 L14,34 L12,33 L14,33 L11,27 L11,20 L7,14 L7,12 L5,12 L2,4 Z " fill="#C2A899" transform="translate(339,143)"/>
<path d="M0,0 L2,2 L3,32 L4,34 L19,39 L19,41 L22,41 L22,38 L20,38 L20,33 L18,33 L18,28 L16,28 L13,16 L13,3 L18,3 L22,5 L26,11 L26,14 L24,14 L25,30 L28,31 L31,40 L31,42 L33,42 L37,46 L40,54 L49,62 L53,65 L54,68 L54,75 L56,75 L60,88 L63,97 L62,105 L59,101 L58,96 L56,96 L53,89 L51,88 L50,84 L45,80 L40,74 L40,68 L35,67 L33,58 L32,52 L22,49 L12,45 L10,44 L10,42 L0,40 L-9,36 L-18,32 L-30,28 L-50,20 L-50,18 L-52,18 L-53,20 L-57,18 L-59,14 L-56,12 L-51,13 L-42,16 L-32,20 L-32,22 L-26,22 L-11,28 L-2,31 L-2,3 Z " fill="#BEA59A" transform="translate(288,114)"/>
<path d="M0,0 L7,0 L11,3 L11,5 L14,5 L14,2 L22,3 L36,9 L54,15 L56,18 L52,18 L52,21 L56,22 L56,24 L51,24 L50,29 L48,29 L47,36 L43,43 L41,43 L41,46 L39,46 L39,43 L36,42 L36,38 L34,38 L34,46 L31,50 L25,50 L24,42 L20,43 L16,42 L15,37 L16,34 L22,34 L22,36 L26,36 L26,33 L24,33 L22,30 L8,30 L6,28 L5,10 L1,10 L0,14 L-3,15 L-5,19 L-9,35 L-10,37 L-12,37 L-11,29 L-8,19 L-6,14 L-4,6 L-1,3 Z " fill="#533D37" transform="translate(224,133)"/>
<path d="M0,0 L28,0 L32,7 L33,15 L34,18 L37,19 L37,24 L39,24 L39,26 L45,27 L52,35 L56,38 L56,40 L58,40 L62,44 L62,46 L66,48 L66,50 L70,52 L74,57 L74,59 L76,59 L80,63 L84,67 L86,72 L89,72 L92,76 L96,78 L96,82 L100,84 L104,91 L104,94 L107,94 L107,96 L110,96 L110,111 L101,108 L98,102 L96,101 L96,96 L94,96 L89,88 L85,86 L82,81 L77,76 L74,70 L74,68 L72,68 L71,65 L67,64 L67,61 L62,60 L62,58 L60,58 L54,51 L54,48 L52,48 L47,43 L44,40 L43,37 L37,34 L37,32 L32,32 L32,30 L30,30 L29,27 L21,20 L13,14 L11,9 L6,6 L0,2 Z " fill="#DDA284" transform="translate(408,0)"/>
<path d="M0,0 L67,0 L102,2 L119,5 L128,8 L139,12 L151,13 L158,16 L170,19 L173,22 L173,24 L179,25 L179,27 L185,29 L199,36 L207,38 L207,40 L213,42 L215,44 L219,45 L219,47 L221,47 L221,49 L225,51 L227,52 L227,54 L232,56 L232,58 L227,57 L221,54 L215,49 L205,47 L195,43 L195,41 L190,40 L184,38 L174,35 L168,33 L167,31 L163,29 L166,29 L166,27 L161,26 L153,22 L142,21 L137,17 L130,15 L121,13 L121,11 L107,9 L107,7 L99,7 L99,5 L80,5 L79,4 L72,3 L57,3 L52,4 L51,3 L23,3 L25,5 L19,7 L3,9 L-9,11 L-21,14 L-26,16 L-40,19 L-45,19 L-45,17 L-43,17 L-43,15 L-38,13 L-31,13 L-31,11 L-24,10 L-23,7 L-5,3 L0,3 Z " fill="#82401F" transform="translate(93,59)"/>
<path d="M0,0 L2,2 L2,10 L0,14 L-1,26 L-7,26 L-6,30 L-8,38 L-11,42 L-44,44 L-43,35 L-51,32 L-67,28 L-65,25 L-52,20 L-47,18 L-39,18 L-39,16 L-27,13 L-22,11 L-18,11 L-18,9 L-13,8 L-13,5 L-3,2 L0,2 Z " fill="#241611" transform="translate(279,268)"/>
<path d="M0,0 L4,0 L4,8 L39,9 L46,11 L46,13 L52,14 L52,16 L56,17 L62,25 L62,27 L69,27 L70,19 L71,13 L78,13 L81,15 L81,35 L83,35 L84,29 L86,31 L87,22 L92,22 L92,24 L89,24 L90,37 L92,43 L92,49 L94,49 L94,54 L96,54 L96,59 L98,59 L98,62 L95,62 L95,60 L86,58 L79,55 L78,53 L77,23 L76,22 L75,24 L74,52 L66,51 L55,45 L55,43 L53,43 L52,41 L51,25 L48,18 L38,13 L7,13 L6,16 L-3,18 L-6,19 L-7,24 L-10,27 L-13,27 L-14,33 L-16,33 L-18,39 L-20,40 L-19,35 L-17,29 L-15,29 L-13,23 L-10,21 L-8,14 L-5,12 L-2,3 L0,3 Z " fill="#815B50" transform="translate(212,93)"/>
<path d="M0,0 L7,0 L12,4 L12,18 L9,19 L9,28 L6,35 L4,35 L7,45 L6,57 L-34,57 L-33,45 L-32,43 L-24,43 L-24,41 L-22,41 L-21,36 L-18,35 L-15,24 L-12,23 L-10,11 L-3,11 L-2,7 L0,6 Z " fill="#8F99A7" transform="translate(460,461)"/>
<path d="M0,0 L1,0 L0,22 L-1,32 L-1,41 L1,42 L2,35 L6,24 L8,23 L9,19 L11,19 L11,24 L10,25 L9,34 L7,38 L5,38 L4,54 L3,58 L5,58 L2,67 L-3,79 L-7,86 L-10,93 L-15,102 L-17,102 L-19,108 L-25,115 L-26,118 L-28,118 L-30,124 L-35,132 L-39,136 L-39,140 L-36,142 L-37,144 L-38,143 L-40,147 L-45,146 L-45,151 L-49,150 L-49,152 L-53,154 L-53,148 L-51,148 L-51,142 L-49,140 L-47,134 L-45,134 L-44,129 L-40,120 L-36,110 L-35,110 L-36,126 L-37,128 L-35,128 L-35,126 L-33,126 L-31,122 L-27,112 L-23,106 L-21,95 L-17,95 L-14,94 L-10,84 L-8,81 L-7,70 L-9,70 L-9,72 L-11,72 L-13,69 L-13,30 L-8,11 L-7,6 L-5,6 L-3,2 Z " fill="#77524A" transform="translate(181,114)"/>
<path d="M0,0 L5,2 L7,8 L7,12 L9,12 L9,30 L7,43 L3,51 L1,51 L0,56 L-3,67 L-9,75 L-11,75 L-12,79 L-15,80 L-20,75 L-21,59 L-19,41 L-14,25 L-8,13 L-5,13 L-3,5 L-2,3 L0,3 Z " fill="#F7E2DD" transform="translate(313,221)"/>
<path d="M0,0 L16,0 L16,3 L20,4 L22,6 L22,21 L19,24 L25,24 L25,22 L27,22 L27,19 L34,21 L34,16 L37,16 L36,8 L40,4 L42,4 L42,15 L45,15 L46,20 L43,20 L43,18 L39,17 L39,21 L41,21 L42,26 L45,27 L45,30 L27,35 L16,36 L16,34 L18,34 L17,30 L9,31 L10,38 L-6,39 L-12,35 L-12,19 L-9,19 L-8,14 L-6,7 L-3,5 L-2,2 L0,2 Z " fill="#BAA094" transform="translate(320,389)"/>
<path d="M0,0 L7,0 L11,8 L14,18 L14,37 L11,55 L8,55 L5,65 L2,68 L0,75 L-5,84 L-9,85 L-11,90 L-15,98 L-17,100 L-19,105 L-24,114 L-33,120 L-43,120 L-43,108 L-40,107 L-39,105 L-36,105 L-41,97 L-43,95 L-37,92 L-36,89 L-34,89 L-33,83 L-31,83 L-28,71 L-25,64 L-22,59 L-18,47 L-17,51 L-18,67 L-17,79 L-15,83 L-10,82 L-9,79 L-7,79 L-5,75 L-2,71 L1,60 L3,55 L5,55 L6,50 L8,47 L10,34 L11,16 L9,16 L6,6 L2,4 L2,7 L0,7 L-3,17 L-5,17 L-5,12 L-2,7 Z " fill="#D3B9B2" transform="translate(311,217)"/>
<path d="M0,0 L2,0 L3,4 L12,6 L14,9 L14,12 L9,14 L9,17 L10,18 L10,24 L16,24 L17,29 L16,30 L5,30 L5,36 L14,36 L14,51 L6,53 L-1,53 L-5,57 L-6,67 L-9,68 L-10,75 L-13,80 L-15,90 L-30,90 L-22,71 L-18,62 L-10,40 L-7,31 L-5,24 L-2,7 L0,7 Z " fill="#636671" transform="translate(370,428)"/>
<path d="M0,0 L1,0 L1,5 L11,10 L11,12 L23,15 L35,20 L35,22 L39,23 L46,26 L51,34 L51,37 L57,39 L59,40 L59,43 L61,43 L65,52 L65,54 L67,54 L68,60 L71,60 L72,65 L71,67 L73,67 L73,108 L68,108 L66,101 L61,99 L60,81 L59,75 L57,75 L54,56 L52,60 L49,69 L45,71 L45,59 L47,59 L46,45 L45,42 L47,40 L44,33 L37,29 L37,27 L32,25 L32,22 L27,22 L27,20 L25,20 L25,17 L4,14 L1,13 L-1,7 L-14,4 L-14,2 L-9,2 L-8,3 L0,4 Z " fill="#B2B6C4" transform="translate(445,410)"/>
<path d="M0,0 L3,0 L2,4 L1,8 L6,11 L15,14 L18,17 L18,19 L20,19 L23,23 L23,28 L20,31 L-7,31 L-7,34 L-11,34 L-12,40 L-15,41 L-17,45 L-25,51 L-30,54 L-34,54 L-34,49 L-32,49 L-30,43 L-23,42 L-25,38 L-25,31 L-20,27 L-21,18 L-22,14 L-22,6 L-20,4 L-3,4 L-3,2 L0,2 Z " fill="#A4847E" transform="translate(180,343)"/>
<path d="M0,0 L5,1 L6,19 L10,20 L21,20 L23,24 L25,24 L25,27 L21,27 L21,25 L15,25 L15,33 L23,33 L24,41 L30,40 L32,37 L33,29 L35,29 L36,33 L38,34 L38,37 L40,37 L40,34 L42,34 L39,44 L21,44 L21,41 L19,42 L17,47 L15,50 L19,52 L12,51 L2,46 L-14,42 L-17,40 L-16,34 L-14,28 L-11,28 L-9,17 L-6,8 L-4,5 L-1,5 Z " fill="#432C27" transform="translate(225,142)"/>
<path d="M0,0 L5,1 L5,3 L10,3 L11,6 L14,6 L17,16 L22,17 L22,19 L24,19 L24,22 L26,22 L26,33 L31,38 L33,44 L0,44 L-1,38 L-4,38 L-5,30 L-15,30 L-18,28 L-18,26 L-20,26 L-20,22 L-24,22 L-22,27 L-27,29 L-32,29 L-34,33 L-36,35 L-39,35 L-43,26 L-42,24 L-39,25 L-40,22 L-38,22 L-38,26 L-40,26 L-40,29 L-38,29 L-37,31 L-34,30 L-32,25 L-28,17 L-25,15 L-30,13 L-30,9 L-21,9 L-19,11 L-18,18 L-7,19 L-5,20 L-4,27 L7,27 L11,25 L12,22 L15,22 L13,15 L11,14 L9,8 L4,7 L4,4 L1,4 Z " fill="#464E67" transform="translate(274,474)"/>
<path d="M0,0 L15,0 L22,1 L23,2 L42,3 L42,5 L50,5 L50,7 L59,7 L64,9 L64,11 L73,12 L82,15 L85,18 L96,19 L106,24 L109,25 L111,30 L102,29 L101,30 L104,30 L104,32 L111,34 L122,38 L122,40 L127,42 L129,45 L129,54 L127,56 L126,54 L123,53 L118,46 L113,42 L104,39 L82,37 L82,35 L74,35 L74,32 L72,32 L73,27 L74,24 L84,23 L79,19 L79,17 L72,17 L64,14 L46,12 L30,8 L26,7 L26,4 L10,4 L-2,3 Z " fill="#6F3923" transform="translate(150,61)"/>
<path d="M0,0 L4,1 L8,5 L10,6 L10,11 L15,10 L15,17 L17,17 L20,25 L22,34 L24,37 L23,52 L19,54 L18,63 L13,63 L7,67 L2,67 L-1,62 L-1,52 L2,36 L1,10 Z " fill="#765342" transform="translate(324,218)"/>
<path d="M0,0 L10,3 L18,4 L18,7 L10,8 L9,13 L2,16 L-9,17 L-10,30 L-15,32 L-17,31 L-15,15 L-18,15 L-18,22 L-21,22 L-22,41 L-23,46 L-21,46 L-21,50 L-29,50 L-32,44 L-32,40 L-30,40 L-31,38 L-34,37 L-36,41 L-39,45 L-40,54 L-47,54 L-48,52 L-48,46 L-50,46 L-50,39 L-49,36 L-55,38 L-54,35 L-49,33 L-43,29 L-36,24 L-32,19 L-32,14 L-27,15 L-27,12 L0,11 L2,9 L2,4 Z " fill="#715244" transform="translate(200,362)"/>
<path d="M0,0 L35,1 L34,3 L32,3 L30,9 L27,13 L24,18 L15,21 L4,22 L-6,19 L-7,15 L-10,16 L-10,23 L-11,24 L-18,23 L-20,22 L-22,17 L-26,16 L-26,8 L-24,4 L-12,1 Z " fill="#C9AAAA" transform="translate(214,315)"/>
<path d="M0,0 L10,1 L22,5 L22,7 L32,10 L44,15 L46,21 L45,31 L40,30 L40,24 L36,24 L36,26 L34,26 L32,22 L22,23 L19,28 L18,35 L15,37 L13,46 L11,47 L10,52 L7,52 L6,54 L6,44 L7,38 L4,37 L4,30 L12,31 L13,17 L-3,18 L-6,23 L-7,25 L-9,25 L-7,19 L-4,11 L-2,11 L-1,6 L4,6 L4,4 L0,3 Z " fill="#2F2320" transform="translate(276,151)"/>
<path d="M0,0 L6,2 L8,14 L2,12 L2,16 L-1,16 L-1,21 L-4,24 L-5,32 L-8,35 L-10,35 L-10,40 L-12,40 L-12,46 L-15,52 L-17,54 L-21,54 L-21,59 L-25,60 L-27,66 L-28,77 L-31,82 L-32,83 L-38,83 L-43,79 L-38,84 L-38,86 L-43,85 L-47,81 L-46,76 L-40,69 L-35,59 L-33,59 L-32,55 L-27,49 L-24,43 L-22,43 L-21,39 L-16,31 L-12,21 L-8,13 L-4,3 L-3,1 Z " fill="#A77C75" transform="translate(188,173)"/>
<path d="M0,0 L8,0 L15,3 L15,5 L20,6 L20,15 L17,17 L10,17 L9,23 L7,27 L6,40 L1,41 L-14,33 L-17,32 L-17,30 L-21,29 L-26,25 L-29,24 L-29,22 L-33,22 L-33,18 L-25,19 L-25,22 L-22,22 L-22,20 L-20,20 L-20,18 L-11,16 L4,16 L4,13 L0,12 L-1,8 L-8,8 L-9,3 L-4,3 L0,4 Z " fill="#B68D91" transform="translate(91,432)"/>
<path d="M0,0 L9,0 L9,2 L12,2 L11,11 L7,13 L5,20 L-3,36 L-5,41 L-7,41 L-8,45 L-29,45 L-28,41 L-25,35 L-17,25 L-16,20 L-14,20 L-14,17 L-12,17 L-11,13 L-9,9 L-1,2 Z " fill="#E2D9D5" transform="translate(74,473)"/>
<path d="M0,0 L3,0 L2,7 L0,7 L1,13 L0,24 L-4,38 L-6,45 L-12,61 L-17,72 L-19,72 L-19,77 L-21,81 L-25,85 L-27,85 L-28,75 L-29,72 L-31,72 L-31,70 L-26,70 L-28,65 L-27,59 L-22,59 L-20,43 L-20,33 L-16,30 L-12,28 L-9,17 L-6,16 L-4,6 L-2,6 L-2,4 L0,4 Z " fill="#43424D" transform="translate(360,429)"/>
<path d="M0,0 L5,1 L6,4 L9,6 L11,25 L13,25 L13,39 L-21,39 L-20,35 L-18,35 L-17,30 L-8,13 L-6,7 L-2,3 L0,3 Z " fill="#39383F" transform="translate(87,479)"/>
<path d="M0,0 L4,0 L4,2 L6,2 L6,4 L9,5 L9,9 L7,10 L6,16 L-49,16 L-49,13 L-51,13 L-52,7 L-48,6 L-47,3 L-41,2 L-14,2 L-14,4 L-11,3 L-6,5 L-6,1 Z " fill="#607CA1" transform="translate(410,502)"/>
<path d="M0,0 L5,0 L4,8 L3,11 L13,13 L13,10 L20,9 L22,8 L22,14 L18,19 L13,21 L10,24 L3,27 L-1,31 L-5,33 L-6,37 L-12,38 L-21,32 L-25,28 L-25,26 L-21,27 L-16,32 L-13,32 L-14,31 L-15,22 L-20,21 L-20,19 L-17,16 L-14,13 L-10,12 L-8,8 L-5,5 L-3,1 Z " fill="#916F6A" transform="translate(124,384)"/>
<path d="M0,0 L2,0 L2,38 L0,48 L-2,59 L-15,59 L-15,41 L-9,19 L-8,10 L-2,2 Z " fill="#444452" transform="translate(486,459)"/>
<path d="M0,0 L1,0 L2,7 L6,8 L8,15 L14,22 L17,24 L17,28 L20,29 L23,38 L28,52 L28,55 L24,54 L24,52 L22,52 L21,46 L19,46 L16,40 L8,34 L4,28 L2,23 L0,21 L0,13 L-2,14 L-4,17 L-4,13 L-6,13 L-6,16 L-8,16 L-10,23 L-13,32 L-17,42 L-20,50 L-23,50 L-23,46 L-21,46 L-20,34 L-18,30 L-18,22 L-13,23 L-12,12 L-10,12 L-10,1 L-6,1 L-6,7 L-1,8 Z " fill="#6B5446" transform="translate(322,174)"/>
<path d="M0,0 L4,3 L4,5 L6,5 L10,12 L14,17 L20,21 L18,16 L11,10 L12,6 L15,9 L15,11 L18,11 L22,17 L26,22 L31,26 L32,30 L38,31 L43,33 L43,36 L51,36 L51,37 L44,37 L44,41 L41,42 L35,40 L36,45 L43,45 L45,49 L48,50 L48,53 L34,53 L28,50 L25,44 L22,42 L21,29 L17,28 L13,28 L12,20 L9,17 L5,11 L1,10 Z " fill="#9C6367" transform="translate(47,395)"/>
<path d="M0,0 L7,4 L9,9 L9,15 L3,15 L4,18 L6,19 L6,30 L7,31 L7,39 L-28,39 L-27,34 L-19,33 L-19,27 L-17,26 L-15,22 L-9,22 L-8,18 L-4,16 L-4,13 L-2,13 L-3,9 L3,9 L1,6 L1,3 L-1,3 Z " fill="#9EACBE" transform="translate(455,479)"/>
<path d="M0,0 L7,0 L13,9 L13,13 L17,15 L19,22 L21,23 L22,38 L-1,38 L0,24 L2,24 L0,18 Z " fill="#646A7E" transform="translate(163,480)"/>
<path d="M0,0 L2,0 L2,2 L5,2 L8,5 L13,9 L13,19 L15,20 L14,12 L15,7 L17,7 L19,20 L20,22 L19,32 L15,30 L12,24 L10,44 L7,44 L5,49 L1,56 L-7,61 L-11,61 L-10,55 L-7,54 L-6,49 L-4,43 L-2,42 L-3,26 L-2,28 L0,28 L2,33 L2,41 L5,42 L5,36 L7,36 L5,19 L3,13 L0,11 L-4,4 L-4,1 L0,2 Z " fill="#534745" transform="translate(205,404)"/>
<path d="M0,0 L11,0 L8,2 L-5,3 L-5,5 L-19,9 L-32,11 L-36,12 L-36,14 L-48,18 L-53,18 L-53,20 L-56,21 L-60,25 L-71,29 L-77,34 L-81,36 L-85,36 L-85,23 L-76,19 L-64,14 L-53,9 L-38,4 L-37,3 L-26,2 L-26,4 L-35,8 L-50,12 L-53,13 L-53,15 L-45,14 L-37,12 L-37,10 L-23,6 L-13,6 L-13,4 Z " fill="#99675B" transform="translate(85,76)"/>
<path d="M0,0 L2,0 L1,12 L3,12 L4,17 L6,17 L9,22 L14,29 L17,31 L17,33 L21,34 L26,37 L28,39 L28,42 L23,42 L23,47 L28,47 L28,49 L32,50 L37,54 L40,55 L40,57 L44,58 L58,65 L61,65 L61,67 L53,67 L49,65 L30,63 L30,60 L27,59 L27,57 L25,57 L24,50 L22,50 L16,43 L16,40 L14,40 L14,37 L10,35 L6,29 L6,26 L3,25 L-3,15 L-4,13 L-4,5 L-2,1 Z " fill="#8E6C6C" transform="translate(34,407)"/>
<path d="M0,0 L5,2 L7,8 L7,12 L9,12 L9,30 L7,43 L3,51 L1,51 L0,56 L-3,67 L-9,75 L-11,75 L-12,79 L-15,80 L-20,75 L-21,59 L-19,41 L-14,25 L-8,13 L-7,13 L-7,21 L-9,24 L-11,24 L-11,29 L-13,29 L-13,35 L-15,38 L-14,55 L-12,61 L-7,62 L-5,53 L-2,52 L0,47 L2,43 L4,43 L6,27 L7,22 L7,14 L4,7 L4,3 L0,3 Z " fill="#E3CEC9" transform="translate(313,221)"/>
<path d="M0,0 L16,1 L19,3 L19,7 L17,7 L17,4 L14,4 L14,2 L5,2 L3,6 L-1,8 L-2,11 L-4,11 L-6,16 L-7,19 L-9,19 L-9,22 L-11,22 L-11,27 L-20,38 L-24,47 L-35,47 L-33,37 L-28,35 L-27,27 L-24,27 L-24,25 L-21,25 L-21,20 L-14,11 L-12,5 Z " fill="#B0918D" transform="translate(69,471)"/>
<path d="M0,0 L7,0 L10,9 L12,17 L14,17 L16,23 L21,25 L22,28 L27,30 L28,33 L32,34 L34,38 L34,41 L38,41 L38,43 L40,43 L40,46 L45,46 L46,47 L47,56 L49,58 L47,59 L42,56 L38,52 L33,51 L31,48 L31,45 L29,44 L26,39 L21,35 L21,32 L18,31 L16,28 L13,27 L13,25 L6,25 L1,19 L0,14 L0,4 L-9,5 L-14,9 L-12,5 L-10,3 L-2,2 Z " fill="#845C59" transform="translate(64,359)"/>
<path d="M0,0 L10,0 L11,3 L16,5 L16,8 L24,9 L24,11 L26,11 L27,16 L29,17 L29,22 L24,22 L24,24 L3,24 L2,20 L0,20 L-3,15 L-4,14 L-4,3 Z " fill="#F2E6E1" transform="translate(168,348)"/>
<path d="M0,0 L10,1 L11,20 L10,21 L10,28 L13,30 L15,39 L15,45 L12,45 L12,48 L15,49 L13,49 L13,51 L7,51 L8,48 L10,48 L9,33 L4,30 L4,27 L-12,27 L-12,29 L-14,29 L-15,33 L-18,34 L-19,41 L-21,46 L-22,46 L-22,38 L-20,38 L-19,29 L-15,23 L-1,22 L-1,20 L-3,18 L-4,11 L-6,11 L-5,7 L-4,4 L-1,3 Z " fill="#AD8C79" transform="translate(332,362)"/>
<path d="M0,0 L7,0 L11,2 L11,5 L13,5 L13,7 L26,6 L31,8 L30,13 L27,22 L25,22 L25,24 L20,24 L15,22 L15,20 L7,19 L2,15 L-10,15 L-12,14 L-12,8 L-11,7 L-3,7 L-2,2 Z " fill="#7B635F" transform="translate(243,146)"/>
<path d="M0,0 L5,0 L9,9 L10,11 L10,18 L3,17 L3,12 L1,12 L1,14 L-1,14 L-3,22 L0,22 L2,30 L2,38 L1,44 L-11,44 L-13,42 L-13,36 L-16,36 L-16,33 L-14,33 L-13,27 L-11,27 L-11,22 L-8,14 L-4,3 Z " fill="#BDA59A" transform="translate(429,370)"/>
<path d="M0,0 L5,2 L8,4 L8,8 L14,9 L22,12 L25,16 L20,16 L20,20 L17,19 L17,17 L15,17 L18,26 L18,30 L15,30 L18,36 L21,39 L24,48 L22,48 L22,50 L18,49 L15,46 L12,38 L9,36 L9,34 L7,34 L3,23 L1,22 L0,19 L0,6 L2,6 Z " fill="#7C5B48" transform="translate(312,122)"/>
<path d="M0,0 L8,0 L16,2 L32,8 L48,14 L48,16 L53,18 L55,21 L55,30 L53,32 L52,30 L49,29 L44,22 L39,18 L30,15 L8,13 L8,11 L0,11 L0,8 L-2,8 L-1,3 Z " fill="#4A251C" transform="translate(224,85)"/>
<path d="M0,0 L5,0 L7,4 L6,13 L5,27 L2,28 L0,44 L-8,43 L-13,42 L-13,35 L-8,18 L-4,4 Z " fill="#351F16" transform="translate(206,193)"/>
<path d="M0,0 L6,0 L8,1 L8,6 L1,13 L-1,19 L-4,22 L-7,28 L-10,35 L-12,39 L-14,39 L-16,43 L-21,55 L-23,55 L-24,60 L-29,79 L-33,95 L-35,125 L-37,137 L-38,148 L-40,151 L-40,135 L-38,105 L-36,95 L-34,77 L-31,70 L-29,54 L-26,47 L-23,47 L-23,44 L-20,43 L-19,39 L-17,39 L-17,37 L-15,37 L-14,31 L-12,28 L-9,27 L-4,18 L0,9 L3,7 L4,3 Z " fill="#B99094" transform="translate(168,73)"/>
<path d="M0,0 L4,0 L9,17 L8,21 L7,19 L8,27 L10,37 L12,37 L18,53 L19,57 L-9,57 L-8,53 L-7,51 L-5,51 L-5,40 L-2,35 L2,35 L4,39 L7,40 L7,42 L9,42 L7,31 L5,29 L4,13 L2,13 Z " fill="#46526B" transform="translate(217,461)"/>
<path d="M0,0 L2,0 L1,9 L-1,18 L-3,18 L-4,27 L-6,34 L-8,34 L-8,37 L-13,36 L-12,27 L-16,29 L-21,29 L-21,27 L-31,25 L-33,23 L-33,20 L-37,19 L-40,16 L-39,10 L-33,13 L-27,13 L-27,15 L-13,15 L-12,17 L-6,18 L-6,13 L-3,13 L-2,6 Z " fill="#4E2B28" transform="translate(181,246)"/>
<path d="M0,0 L10,3 L18,4 L18,7 L10,8 L9,13 L2,16 L-9,17 L-10,30 L-15,32 L-17,31 L-15,14 L-19,14 L-19,20 L-23,21 L-24,42 L-27,42 L-28,39 L-28,19 L-32,20 L-32,14 L-27,15 L-27,12 L0,11 L2,9 L2,4 Z " fill="#785C51" transform="translate(200,362)"/>
<path d="M0,0 L10,0 L10,2 L14,3 L14,17 L10,22 L8,22 L8,24 L2,23 L2,21 L-10,22 L-13,23 L-14,18 L-11,13 L-8,12 L-5,6 L-1,3 Z " fill="#D2B9AB" transform="translate(326,392)"/>
<path d="M0,0 L5,1 L5,10 L4,12 L2,30 L-3,34 L-7,40 L-11,41 L-17,40 L-16,34 L-14,28 L-11,28 L-9,17 L-6,8 L-4,5 L-1,5 Z " fill="#271A17" transform="translate(225,142)"/>
<path d="M0,0 L3,0 L8,8 L10,18 L14,24 L15,31 L16,32 L17,47 L19,54 L18,61 L15,61 L15,53 L11,52 L11,48 L15,48 L12,24 L8,24 L6,22 L5,30 L-3,30 L-3,45 L-4,45 L-6,29 L-9,27 L-10,24 L-14,23 L-14,26 L-16,26 L-15,22 L-13,22 L-12,18 L-11,19 L-2,19 L-1,13 L3,12 L3,10 L1,10 Z " fill="#55555E" transform="translate(101,456)"/>
<path d="M0,0 L11,0 L11,1 L1,1 L1,3 L-3,3 L-3,5 L-5,6 L-8,16 L-4,17 L-1,18 L1,9 L3,7 L12,6 L11,10 L9,15 L24,16 L28,15 L36,15 L38,2 L35,1 L38,0 L47,0 L46,2 L44,2 L42,8 L39,12 L36,17 L27,20 L16,21 L6,18 L5,14 L2,15 L2,22 L1,23 L-6,22 L-8,21 L-10,16 L-14,15 L-14,7 L-12,3 Z " fill="#B39292" transform="translate(202,316)"/>
<path d="M0,0 L2,0 L1,16 L-1,23 L-4,32 L-14,60 L-21,74 L-24,81 L-29,82 L-29,77 L-25,70 L-24,65 L-22,65 L-19,55 L-14,44 L-11,37 L-7,20 L-4,10 L-2,10 Z " fill="#AFAFBC" transform="translate(365,436)"/>
<path d="M0,0 L5,2 L6,5 L8,5 L12,10 L12,12 L21,13 L22,12 L22,9 L31,9 L33,9 L32,4 L32,1 L39,9 L38,13 L45,12 L54,17 L54,20 L50,22 L44,22 L44,25 L39,24 L30,21 L22,20 L22,17 L17,16 L11,14 L7,8 L2,4 Z " fill="#2F1E20" transform="translate(68,411)"/>
<path d="M0,0 L4,0 L5,7 L8,8 L9,5 L11,8 L11,11 L13,11 L13,14 L18,13 L27,13 L27,14 L21,16 L10,16 L10,18 L2,18 L2,15 L-13,18 L-21,17 L-20,12 L-15,5 L-13,5 L-12,3 L-5,4 L0,10 L0,12 L8,13 L7,11 L3,12 L1,10 Z " fill="#88615F" transform="translate(181,328)"/>
<path d="M0,0 L3,0 L3,2 L5,2 L7,36 L8,39 L5,38 L4,36 L3,6 L2,5 L1,7 L0,35 L-8,34 L-19,28 L-19,26 L-21,26 L-22,24 L-22,12 L-19,12 L-18,14 L-17,23 L-16,26 L-7,26 L-8,22 L-5,6 L-1,5 Z " fill="#8D685E" transform="translate(286,110)"/>
<path d="M0,0 L2,0 L3,2 L10,5 L14,10 L20,14 L22,17 L22,20 L24,20 L26,26 L26,40 L28,42 L28,49 L25,48 L22,38 L22,35 L20,35 L20,28 L15,29 L15,24 L11,22 L12,20 L14,21 L12,16 L7,14 L7,12 L3,10 L0,8 Z " fill="#A18272" transform="translate(319,200)"/>
<path d="M0,0 L5,2 L5,4 L7,4 L11,9 L13,10 L14,7 L15,10 L15,17 L17,17 L21,30 L24,39 L23,47 L20,43 L19,38 L17,38 L14,31 L12,30 L11,26 L6,22 L1,16 L1,10 L-4,9 L-4,2 L-3,6 L2,6 L5,14 L10,16 L8,10 L0,2 Z " fill="#AC927E" transform="translate(327,172)"/>
<path d="M0,0 L9,0 L6,1 L6,3 L3,4 L2,6 L0,6 L-2,13 L-4,13 L-4,16 L-7,19 L-12,29 L-14,30 L-16,40 L-19,41 L-20,45 L-29,45 L-28,41 L-25,35 L-17,25 L-16,20 L-14,20 L-14,17 L-12,17 L-11,13 L-9,9 L-1,2 Z " fill="#D2BFBA" transform="translate(74,473)"/>
<path d="M0,0 L2,1 L1,2 L1,13 L4,16 L4,19 L6,19 L7,22 L28,23 L28,21 L33,21 L33,16 L30,15 L30,10 L28,10 L28,8 L20,7 L20,5 L30,7 L34,11 L34,13 L36,13 L39,17 L39,22 L36,25 L9,25 L9,28 L5,28 L4,34 L1,36 L-4,35 L-5,30 L-1,29 L-1,24 L1,24 L1,16 L-1,14 L-2,2 Z " fill="#C9B6AE" transform="translate(164,349)"/>
<path d="M0,0 L8,0 L7,6 L6,7 L5,20 L1,22 L-14,14 L-16,10 L-12,10 L-11,7 L-9,7 L-7,3 Z " fill="#E3D5D7" transform="translate(91,451)"/>
<path d="M0,0 L7,1 L9,2 L9,5 L13,5 L11,10 L-4,9 L-6,10 L-6,14 L-15,14 L-21,15 L-23,13 L-23,9 L-21,9 L-21,5 L-9,3 L-6,1 Z " fill="#4E2724" transform="translate(201,301)"/>
<path d="M0,0 L8,0 L11,3 L13,13 L13,20 L12,24 L4,24 L0,22 L-1,4 Z " fill="#6A4B40" transform="translate(432,389)"/>
<path d="M0,0 L2,0 L0,4 L-4,6 L-5,9 L-7,9 L-9,14 L-10,17 L-12,17 L-12,20 L-14,20 L-14,25 L-23,36 L-27,45 L-33,45 L-28,33 L-22,23 L-19,20 L-18,17 L-16,17 L-15,13 L-11,6 L-3,1 Z " fill="#C0A49F" transform="translate(72,473)"/>
<path d="M0,0 L1,2 L0,8 L3,9 L4,16 L3,24 L6,24 L6,26 L0,28 L-7,29 L-12,32 L-14,32 L-13,37 L-10,40 L-10,43 L-16,45 L-15,42 L-12,42 L-17,34 L-19,32 L-13,29 L-12,26 L-10,26 L-9,20 L-7,20 L-4,8 L-1,1 Z " fill="#CAB2AE" transform="translate(287,280)"/>
<path d="M0,0 L18,0 L19,5 L16,8 L12,8 L12,10 L10,10 L9,15 L7,18 L2,18 L2,14 L-1,12 L-6,11 L-6,5 L-4,2 L0,2 Z " fill="#A48586" transform="translate(256,259)"/>
<path d="M0,0 L2,1 L8,9 L8,11 L5,11 L4,14 L-3,15 L-3,17 L0,17 L0,22 L-1,19 L-19,22 L-21,23 L-28,23 L-25,21 L-22,21 L-22,16 L-15,17 L-15,19 L-12,19 L-14,13 L-13,8 L-9,2 L-31,3 L-31,2 L-24,1 L-5,1 L-6,6 L-5,12 L3,13 L0,6 L-2,4 L-2,1 Z " fill="#826161" transform="translate(267,311)"/>
<path d="M0,0 L4,1 L5,6 L7,6 L10,22 L12,22 L13,24 L13,31 L0,31 L-2,20 L-1,14 L0,9 Z " fill="#24232B" transform="translate(85,487)"/>
<path d="M0,0 L1,3 L-3,14 L-9,26 L-10,27 L-10,33 L-14,37 L-16,37 L-18,43 L-20,46 L-22,46 L-23,50 L-25,50 L-27,56 L-30,59 L-31,62 L-36,64 L-39,64 L-39,66 L-44,68 L-53,68 L-53,61 L-52,56 L-55,56 L-55,54 L-51,54 L-51,65 L-41,64 L-32,58 L-28,50 L-25,44 L-21,37 L-17,30 L-13,28 L-9,20 L-6,12 L-3,8 Z " fill="#AE8D83" transform="translate(319,272)"/>
<path d="M0,0 L3,0 L3,4 L6,5 L5,15 L4,26 L2,29 L-5,31 L-10,31 L-8,23 L-4,9 L-2,5 L0,5 Z " fill="#351C16" transform="translate(191,243)"/>
<path d="M0,0 L2,0 L2,2 L5,2 L8,5 L13,9 L13,19 L15,20 L14,12 L15,7 L17,7 L19,20 L20,22 L19,32 L15,30 L11,22 L2,12 L0,11 L-4,4 L-4,1 L0,2 Z " fill="#6C5C57" transform="translate(205,404)"/>
<path d="M0,0 L5,1 L8,4 L9,13 L8,16 L5,16 L6,19 L-3,16 L-19,12 L-20,10 L-9,11 L-8,6 L-6,6 L-4,2 Z " fill="#5C433E" transform="translate(230,172)"/>
<path d="M0,0 L2,0 L0,4 L-6,9 L-13,12 L-17,16 L-21,18 L-22,22 L-28,23 L-37,17 L-41,13 L-41,11 L-37,12 L-30,19 L-25,20 L-25,11 L-15,5 L-12,4 L-12,2 L-10,1 Z " fill="#B99D96" transform="translate(140,399)"/>
<path d="M0,0 L12,3 L18,5 L18,7 L28,10 L40,15 L42,21 L41,31 L36,30 L36,24 L32,24 L32,26 L30,26 L28,22 L25,22 L25,20 L28,19 L26,15 L28,15 L26,12 L16,9 L16,7 L6,5 L6,3 L0,2 Z " fill="#3C2F26" transform="translate(280,151)"/>
<path d="M0,0 L4,1 L5,2 L5,13 L3,32 L-1,40 L-3,40 L-3,33 L0,26 L0,14 L-3,13 L-4,17 L-7,17 L-8,12 L-8,2 L-3,3 L0,2 Z " fill="#BA9781" transform="translate(339,286)"/>
<path d="M0,0 L7,0 L8,3 L12,5 L14,6 L15,9 L18,9 L20,6 L26,6 L27,10 L26,15 L16,17 L10,15 L10,13 L7,13 L7,11 L4,11 L4,9 L0,8 L-1,1 Z " fill="#90726C" transform="translate(244,149)"/>
<path d="M0,0 L5,0 L9,2 L13,8 L13,11 L11,11 L11,19 L10,19 L10,13 L6,13 L7,25 L9,25 L10,31 L11,33 L13,33 L14,38 L11,37 L10,39 L7,38 L9,38 L9,35 L7,35 L7,30 L5,30 L5,25 L3,25 L0,13 Z " fill="#AA8E7A" transform="translate(301,117)"/>
<path d="M0,0 L6,2 L8,14 L2,12 L2,16 L-1,16 L-1,19 L-4,19 L-4,22 L-8,25 L-10,25 L-10,27 L-12,27 L-13,29 L-13,23 L-8,13 L-4,3 L-3,1 Z " fill="#A97E77" transform="translate(188,173)"/>
<path d="M0,0 L9,3 L9,17 L7,27 L-1,27 L-1,2 Z " fill="#4B5260" transform="translate(493,491)"/>
<path d="M0,0 L10,0 L11,3 L16,5 L16,6 L8,6 L8,4 L-2,4 L0,14 L4,16 L4,18 L8,20 L25,21 L24,19 L24,13 L21,12 L21,9 L24,9 L24,11 L26,11 L27,16 L29,17 L29,22 L24,22 L24,24 L3,24 L2,20 L0,20 L-3,15 L-4,14 L-4,3 Z " fill="#E1D0C9" transform="translate(168,348)"/>
<path d="M0,0 L4,1 L5,6 L14,8 L16,14 L15,17 L8,17 L8,20 L1,20 L-1,14 L-6,13 L-6,9 L-3,9 L-3,6 L1,6 Z " fill="#526D92" transform="translate(312,498)"/>
<path d="M0,0 L1,0 L0,8 L-2,20 L-4,20 L-5,26 L-9,40 L-11,43 L-13,43 L-13,39 L-16,38 L-15,36 L-13,37 L-15,32 L-15,25 L-22,24 L-22,22 L-19,22 L-19,19 L-14,21 L-13,23 L-8,24 L-7,23 L-5,8 L-2,6 Z " fill="#A88178" transform="translate(209,150)"/>
<path d="M0,0 L5,1 L7,21 L9,21 L11,26 L13,27 L12,38 L10,46 L2,46 L2,45 L9,45 L9,34 L7,22 L0,22 L-3,21 L-4,32 L-5,32 L-6,24 L-9,24 L-9,19 L-7,16 L-5,16 L-5,14 L-3,14 L-3,19 L4,20 L2,11 L0,5 Z " fill="#9A7C6F" transform="translate(435,368)"/>
<path d="M0,0 L4,0 L4,2 L6,2 L6,4 L9,5 L9,9 L7,10 L6,16 L-8,16 L-8,10 L-6,7 L-5,2 Z " fill="#748FAE" transform="translate(410,502)"/>
<path d="M0,0 L9,0 L14,3 L14,5 L18,7 L23,11 L23,14 L25,14 L30,20 L34,24 L40,25 L40,33 L36,32 L34,30 L29,29 L27,26 L27,23 L25,22 L22,17 L17,13 L17,10 L14,9 L12,6 L9,5 L9,3 L2,3 Z " fill="#6D4A46" transform="translate(68,381)"/>
<path d="M0,0 L11,0 L8,2 L-5,3 L-5,5 L-19,9 L-32,11 L-36,12 L-36,14 L-48,18 L-53,18 L-53,20 L-56,21 L-60,25 L-71,29 L-77,34 L-81,36 L-85,36 L-85,34 L-73,28 L-69,25 L-64,23 L-61,23 L-61,21 L-54,17 L-39,12 L-37,12 L-37,10 L-23,6 L-13,6 L-13,4 Z " fill="#A47776" transform="translate(85,76)"/>
<path d="M0,0 L5,0 L6,2 L4,2 L4,7 L6,7 L8,17 L6,17 L6,15 L4,15 L4,21 L6,21 L7,25 L3,25 L2,27 L-2,21 L-5,16 L-5,14 L-2,13 L-5,4 L-5,1 L-3,1 L0,4 Z " fill="#967765" transform="translate(332,138)"/>
<path d="M0,0 L6,1 L11,3 L12,9 L18,8 L19,6 L25,6 L24,12 L21,12 L21,14 L13,14 L13,17 L7,16 L5,7 L2,7 L-1,4 Z " fill="#8B685C" transform="translate(227,205)"/>
<path d="M0,0 L5,1 L12,8 L17,11 L20,16 L20,18 L18,18 L21,27 L22,31 L17,26 L13,24 L11,15 L7,14 L7,12 L5,12 L2,4 Z " fill="#DAB7AB" transform="translate(339,143)"/>
<path d="M0,0 L8,0 L8,4 L6,4 L5,9 L2,17 L-2,26 L-3,22 L1,13 L1,4 L-4,5 L-26,7 L-26,10 L-34,10 L-33,13 L-37,13 L-37,11 L-42,12 L-50,12 L-47,10 L-32,8 L-23,4 L-12,3 Z " fill="#4E322F" transform="translate(258,330)"/>
<path d="M0,0 L1,4 L0,8 L5,8 L2,10 L-1,22 L-4,34 L-7,42 L-2,42 L-6,45 L-12,44 L-10,32 L-8,32 L-7,23 L-4,16 Z " fill="#75554C" transform="translate(188,232)"/>
<path d="M0,0 L4,2 L9,8 L14,11 L17,20 L20,23 L20,31 L15,29 L13,27 L11,22 L8,16 L5,14 L4,9 L2,9 Z " fill="#92735E" transform="translate(380,303)"/>
<path d="M0,0 L3,1 L12,17 L15,24 L15,26 L17,26 L19,31 L19,34 L21,34 L26,44 L25,46 L22,41 L20,40 L20,35 L18,35 L17,32 L15,34 L15,30 L12,30 L11,24 L9,24 L6,19 L4,8 L3,10 L1,10 L0,7 L-3,5 L-1,1 Z " fill="#E0B1B3" transform="translate(426,242)"/>
<path d="M0,0 L3,0 L4,6 L9,7 L18,15 L21,17 L21,21 L17,19 L15,15 L13,15 L13,13 L8,11 L15,19 L18,22 L18,27 L12,25 L10,18 L5,17 L5,13 L3,13 L0,5 Z " fill="#DAC5B7" transform="translate(319,161)"/>
<path d="M0,0 L5,0 L6,5 L8,5 L8,14 L6,17 L-2,18 L-4,15 L-4,7 L-2,7 L-1,1 Z " fill="#E6CEC0" transform="translate(332,395)"/>
<path d="M0,0 L5,1 L18,4 L30,8 L32,11 L30,14 L22,13 L14,10 L10,9 L10,7 L6,7 L6,5 L-1,3 Z " fill="#3E2822" transform="translate(242,138)"/>
<path d="M0,0 L4,0 L6,6 L4,6 L4,8 L12,8 L11,13 L11,16 L16,16 L13,18 L4,18 L3,22 L2,19 L0,18 L-1,12 L-3,8 L-3,5 L2,5 L2,3 L0,3 Z " fill="#8B6260" transform="translate(176,288)"/>
<path d="M0,0 L6,0 L8,1 L8,6 L1,13 L-1,19 L-4,22 L-7,28 L-10,35 L-12,39 L-14,39 L-16,43 L-21,55 L-22,51 L-20,47 L-19,39 L-17,39 L-17,37 L-15,37 L-14,31 L-12,28 L-9,27 L-4,18 L0,9 L3,7 L4,3 Z " fill="#A77C81" transform="translate(168,73)"/>
<path d="M0,0 L10,3 L18,4 L18,7 L10,8 L10,12 L2,13 L1,14 L-14,14 L-26,13 L-26,16 L-30,16 L-31,18 L-32,14 L-27,15 L-27,12 L0,11 L2,9 L2,4 Z " fill="#98827C" transform="translate(200,362)"/>
<path d="M0,0 L4,0 L7,14 L10,21 L10,28 L8,28 L8,30 L-1,29 L-5,28 L-5,26 L-9,25 L-9,24 L0,24 L4,26 L5,22 L8,25 L7,20 L3,19 L3,12 L1,12 Z " fill="#C7AE9D" transform="translate(307,130)"/>
<path d="M0,0 L4,1 L8,5 L10,11 L12,13 L12,19 L10,20 L0,20 L0,11 L2,11 L0,4 Z " fill="#CBAC94" transform="translate(390,341)"/>
<path d="M0,0 L6,0 L8,1 L8,3 L17,1 L17,11 L4,11 L0,10 L-1,8 L-1,2 Z " fill="#8B5D5C" transform="translate(152,272)"/>
<path d="M0,0 L7,1 L14,3 L15,5 L18,7 L16,12 L9,13 L7,18 L6,29 L4,28 L6,13 L7,7 L3,6 L4,2 L1,2 L1,7 L-1,8 L-3,11 L-2,4 Z " fill="#4D3027" transform="translate(190,241)"/>
<path d="M0,0 L5,0 L6,3 L8,3 L9,9 L11,9 L13,12 L13,17 L3,17 L-1,8 L-1,1 Z " fill="#5F7594" transform="translate(215,501)"/>
<path d="M0,0 L5,1 L6,3 L6,16 L5,18 L-2,18 L-4,13 L-4,5 Z " fill="#BC9986" transform="translate(334,363)"/>
<path d="M0,0 L7,0 L20,4 L21,8 L19,12 L10,10 L2,8 L2,5 L0,5 Z " fill="#7F5E59" transform="translate(214,298)"/>
<path d="M0,0 L5,0 L14,3 L14,12 L13,13 L1,12 L0,11 Z " fill="#E4C0C7" transform="translate(96,434)"/>
<path d="M0,0 L5,2 L9,4 L9,7 L14,7 L14,9 L3,13 L-7,14 L-7,16 L-15,16 L-11,15 L-10,10 L-1,11 L-1,1 Z " fill="#885C5B" transform="translate(247,270)"/>
<path d="M0,0 L1,4 L-1,4 L-1,8 L1,8 L1,10 L3,10 L4,7 L5,8 L8,2 L9,4 L3,20 L-2,31 L-4,36 L-5,32 L1,15 L-4,17 L-7,16 L-3,8 L-4,1 Z " fill="#574742" transform="translate(300,216)"/>
<path d="M0,0 L8,0 L8,2 L15,3 L16,7 L20,7 L20,9 L0,9 L0,4 L-10,2 L-10,1 L-3,1 L0,2 Z " fill="#351F23" transform="translate(252,250)"/>
<path d="M0,0 L2,0 L3,2 L10,5 L14,10 L18,14 L17,16 L16,17 L18,19 L17,22 L13,18 L12,16 L7,14 L7,12 L3,10 L0,8 Z " fill="#F7E5D7" transform="translate(319,200)"/>
<path d="M0,0 L1,0 L1,8 L3,8 L4,4 L5,11 L6,12 L7,25 L10,28 L10,31 L13,31 L13,33 L21,33 L23,34 L23,37 L20,39 L18,43 L16,38 L13,38 L5,28 L4,13 L-1,8 L-1,2 Z " fill="#503439" transform="translate(49,368)"/>
<path d="M0,0 L4,5 L4,8 L6,8 L7,17 L13,20 L12,38 L11,38 L9,31 L4,29 L3,11 L2,5 L0,5 Z " fill="#9FA8B7" transform="translate(502,480)"/>
<path d="M0,0 L5,2 L8,8 L11,11 L11,19 L2,19 L1,12 L0,11 Z " fill="#7392B4" transform="translate(170,499)"/>
<path d="M0,0 L3,0 L3,2 L5,2 L7,36 L8,39 L5,38 L4,36 L3,6 L2,5 L1,7 L0,35 L-4,34 L-1,34 L-2,15 L-4,15 L-4,6 L-1,5 Z " fill="#9D7D6F" transform="translate(286,110)"/>
<path d="M0,0 L5,2 L6,5 L8,5 L12,10 L12,12 L21,13 L22,12 L22,9 L29,9 L28,16 L31,17 L33,22 L22,20 L22,17 L17,16 L11,14 L7,8 L2,4 Z " fill="#2E1F25" transform="translate(68,411)"/>
<path d="M0,0 L5,0 L4,5 L1,5 L3,2 L1,3 L-11,4 L-11,6 L-21,12 L-23,13 L-24,22 L-29,22 L-30,20 L-27,19 L-26,10 L-24,8 L-18,8 L-18,4 L-15,2 L-14,1 Z " fill="#9F817C" transform="translate(139,397)"/>
<path d="M0,0 L38,1 L38,2 L6,4 L-6,5 L-9,8 L-18,9 L-18,5 L-16,2 L0,2 Z " fill="#734F4C" transform="translate(196,313)"/>
<path d="M0,0 L5,0 L8,5 L10,8 L9,13 L5,20 L3,25 L1,28 L-3,27 L-3,20 L0,19 L4,13 L4,4 L2,4 Z " fill="#9A7E6B" transform="translate(420,355)"/>
<path d="M0,0 L4,0 L5,7 L8,8 L9,5 L11,8 L11,11 L13,11 L13,14 L18,13 L27,13 L27,14 L21,16 L10,16 L10,18 L3,18 L3,14 L6,14 L6,16 L8,16 L9,10 L6,12 L2,11 L0,6 Z " fill="#7C5958" transform="translate(181,328)"/>
<path d="M0,0 L2,1 L5,10 L5,12 L7,12 L11,16 L13,23 L9,23 L7,19 L8,17 L5,17 L5,22 L-8,17 L-14,15 L-16,13 L-8,14 L1,16 L1,14 L3,14 L2,7 Z " fill="#AE9688" transform="translate(314,144)"/>
<path d="M0,0 L2,0 L1,16 L-1,23 L-2,23 L-3,18 L-9,39 L-11,39 L-12,41 L-10,31 L-4,10 L-2,10 Z " fill="#9F9FA8" transform="translate(365,436)"/>
<path d="M0,0 L7,2 L16,3 L18,3 L18,8 L16,11 L8,11 L5,8 L-1,6 Z " fill="#291214" transform="translate(150,262)"/>
<path d="M0,0 L3,4 L8,16 L10,24 L16,38 L16,40 L12,39 L7,26 L6,20 L4,20 L0,7 Z " fill="#98A1B6" transform="translate(223,478)"/>
<path d="M0,0 L1,4 L0,7 L9,6 L12,3 L20,3 L20,4 L12,5 L11,9 L8,21 L7,21 L6,15 L3,14 L3,20 L2,20 L2,11 L-3,11 L-3,5 L-2,3 L0,3 Z " fill="#8C6464" transform="translate(178,314)"/>
<path d="M0,0 L5,1 L7,8 L1,6 L1,4 L-1,4 L-1,12 L3,14 L7,18 L12,20 L11,22 L2,20 L0,17 L0,14 L-6,14 L-6,12 L-4,12 L-3,3 L0,2 Z " fill="#9E897C" transform="translate(320,196)"/>
<path d="M0,0 L4,3 L11,4 L11,6 L15,7 L19,11 L20,14 L27,20 L27,23 L30,24 L31,29 L33,32 L28,31 L26,25 L19,17 L16,14 L16,12 L14,12 L14,10 L6,8 L6,5 L2,4 Z " fill="#452824" transform="translate(66,380)"/>
<path d="M0,0 L4,1 L-3,4 L12,8 L15,10 L8,9 L-2,7 L-2,12 L0,12 L-1,14 L-11,11 L-19,11 L-16,10 L-16,8 L-8,5 L-3,1 Z " fill="#6B443F" transform="translate(216,291)"/>
<path d="M0,0 L8,0 L11,3 L13,13 L13,20 L12,24 L10,24 L10,6 L7,5 L1,7 L2,22 L0,22 L-1,4 Z " fill="#76564A" transform="translate(432,389)"/>
<path d="M0,0 L1,4 L3,4 L4,7 L4,1 L6,1 L6,11 L4,11 L4,15 L-7,15 L-6,11 L-4,11 L-3,6 Z " fill="#333138" transform="translate(73,503)"/>
<path d="M0,0 L1,3 L2,15 L5,19 L7,25 L14,31 L14,35 L10,33 L5,29 L0,22 L0,19 L-2,19 L-3,16 L-1,16 L-1,18 L1,18 L-1,15 L-1,2 Z " fill="#AE7D83" transform="translate(53,381)"/>
<path d="M0,0 L6,0 L8,1 L7,7 L1,11 L-4,14 L-8,14 L-8,17 L-11,16 L-8,10 L-6,10 L-6,8 L0,7 Z " fill="#453B39" transform="translate(274,259)"/>
<path d="M0,0 L1,2 L-1,8 L-2,16 L-4,16 L-6,22 L-8,22 L-9,28 L-12,32 L-14,32 L-13,37 L-10,40 L-10,43 L-16,45 L-15,42 L-12,42 L-17,34 L-19,32 L-13,29 L-12,26 L-10,26 L-9,20 L-7,20 L-4,8 L-1,1 Z " fill="#AF9693" transform="translate(287,280)"/>
<path d="M0,0 L5,5 L7,8 L7,16 L2,21 L0,20 Z " fill="#6E4333" transform="translate(327,256)"/>
<path d="M0,0 L55,0 L58,2 L58,8 L53,13 L50,17 L48,17 L50,13 L55,8 L56,3 L42,2 L0,1 Z " fill="#916360" transform="translate(120,71)"/>
<path d="M0,0 L3,1 L5,4 L5,7 L7,7 L8,15 L4,11 L4,9 L2,9 L3,13 L0,13 L0,16 L-2,16 L-2,11 L-6,9 L-5,7 L0,8 L-2,4 L-3,2 L0,1 Z " fill="#B2978A" transform="translate(336,213)"/>
<path d="M0,0 L2,1 L-1,4 L0,12 L-4,13 L-18,13 L-15,11 L-9,6 L-3,3 Z " fill="#7D6059" transform="translate(138,403)"/>
<path d="M0,0 L5,0 L1,2 L0,3 L1,15 L3,17 L2,25 L0,25 L1,31 L-4,31 L-3,36 L-5,36 L-6,30 L-3,29 L-2,25 L-2,14 L-3,12 L-3,3 Z " fill="#B99C95" transform="translate(163,348)"/>
<path d="M0,0 L3,0 L3,4 L0,4 L-1,9 L-4,10 L-5,14 L-12,15 L-12,13 L-10,12 L-9,6 L-3,2 L0,2 Z " fill="#D0BFB7" transform="translate(348,410)"/>
<path d="M0,0 L2,2 L2,5 L4,5 L10,23 L11,28 L7,29 L4,18 L1,9 L0,8 Z " fill="#D5B9A3" transform="translate(365,275)"/>
<path d="M0,0 L6,2 L8,14 L5,13 L4,11 L-4,10 L-4,5 L-2,5 Z " fill="#D2A9A4" transform="translate(188,173)"/>
<path d="M0,0 L1,0 L1,7 L-5,27 L-9,34 L-10,31 L-8,22 L-6,22 L-4,11 L-1,1 Z " fill="#B6B6C1" transform="translate(362,453)"/>
<path d="M0,0 L2,1 L8,16 L11,23 L11,29 L8,29 L6,21 L2,17 L2,10 Z " fill="#EEBEBD" transform="translate(473,334)"/>
<path d="M0,0 L3,4 L7,17 L9,26 L4,24 L4,21 L0,20 L1,15 L2,13 L0,12 L0,10 L2,10 L0,4 Z " fill="#D8AFB1" transform="translate(499,404)"/>
<path d="M0,0 L2,1 L0,4 L-3,5 L-3,9 L3,8 L5,9 L5,12 L7,13 L-2,11 L-15,8 L-13,5 Z " fill="#341712" transform="translate(227,288)"/>
<path d="M0,0 L7,2 L7,16 L5,26 L3,26 L3,16 L4,11 L0,2 Z " fill="#5F6776" transform="translate(495,492)"/>
<path d="M0,0 L1,0 L1,30 L-4,30 L-4,24 L-2,24 L-2,11 Z " fill="#989DAB" transform="translate(490,488)"/>
<path d="M0,0 L2,0 L2,11 L5,11 L6,16 L3,16 L3,14 L-1,13 L-2,15 L-4,14 L-5,17 L-5,13 L-2,13 L-4,8 L-3,3 Z " fill="#BAA494" transform="translate(360,393)"/>
<path d="M0,0 L7,0 L10,9 L12,17 L14,17 L16,23 L11,21 L10,17 L8,8 L2,9 L2,3 L3,1 Z " fill="#926765" transform="translate(64,359)"/>
<path d="M0,0 L1,4 L-2,12 L-4,12 L-4,20 L-7,30 L-9,34 L-11,34 L-12,40 L-14,40 L-13,33 L-11,30 L-9,30 L-9,24 L-7,20 L-5,11 L-2,6 Z " fill="#7E6360" transform="translate(289,266)"/>
<path d="M0,0 L6,2 L7,4 L3,4 L3,7 L7,8 L7,10 L2,10 L1,15 L-1,15 L0,11 L1,7 L-14,5 L-15,1 L-3,4 L-1,5 Z " fill="#513E38" transform="translate(273,147)"/>
<path d="M0,0 L2,0 L3,13 L-4,12 L-5,11 L-5,1 Z " fill="#5C3B2E" transform="translate(438,399)"/>
<path d="M0,0 L6,1 L10,3 L10,10 L4,10 L0,6 Z " fill="#CAB2A2" transform="translate(402,388)"/>
<path d="M0,0 L4,1 L3,14 L-6,13 L-6,9 L-3,9 L-3,6 L1,6 Z " fill="#64789A" transform="translate(312,498)"/>
<path d="M0,0 L4,0 L9,17 L8,21 L7,19 L5,21 L4,13 L2,13 Z " fill="#5E5256" transform="translate(217,461)"/>
<path d="M0,0 L2,0 L2,10 L0,19 L-3,20 L-4,8 Z " fill="#ECCEB6" transform="translate(377,359)"/>
<path d="M0,0 L5,2 L5,13 L-2,13 L-2,6 Z " fill="#7EA1C3" transform="translate(406,505)"/>
<path d="M0,0 L6,1 L6,3 L15,1 L15,8 L14,10 L10,8 L1,5 Z " fill="#744A49" transform="translate(154,272)"/>
<path d="M0,0 L4,3 L7,12 L5,12 L5,14 L1,13 L-2,10 L-4,6 L-4,2 L-1,3 L0,5 L0,2 Z " fill="#7C6353" transform="translate(329,158)"/>
<path d="M0,0 L1,0 L1,9 L2,11 L-1,19 L-3,15 L-5,15 L-7,24 L-9,27 L-11,27 L-11,24 L-9,24 L-6,14 L-1,3 Z " fill="#9594A1" transform="translate(352,477)"/>
<path d="M0,0 L2,0 L2,2 L5,2 L8,6 L5,6 L5,14 L0,11 L-4,4 L-4,1 L0,2 Z " fill="#684E48" transform="translate(205,404)"/>
<path d="M0,0 L5,1 L6,2 L13,3 L9,4 L10,9 L17,9 L19,14 L15,14 L15,12 L13,12 L13,10 L7,9 L6,6 L-1,4 Z " fill="#B97076" transform="translate(73,431)"/>
<path d="M0,0 L2,4 L5,16 L5,21 L7,21 L10,30 L10,34 L8,34 L8,29 L6,29 L6,24 L4,24 L3,15 L1,15 L-1,10 Z " fill="#DBB5B5" transform="translate(508,430)"/>
<path d="M0,0 L2,0 L1,5 L-3,12 L-7,15 L-12,15 L-11,12 L-9,12 L-8,8 L-5,7 L-5,5 L-1,4 Z " fill="#675C5C" transform="translate(209,448)"/>
<path d="M0,0 L2,4 L6,5 L5,21 L2,20 L0,8 Z " fill="#C3A490" transform="translate(354,208)"/>
<path d="M0,0 L5,0 L5,3 L7,3 L7,11 L0,11 Z " fill="#6C85A8" transform="translate(261,507)"/>
<path d="M0,0 L6,0 L6,2 L8,2 L8,9 L7,11 L2,10 L0,7 Z " fill="#A08373" transform="translate(414,359)"/>
<path d="M0,0 L1,2 L3,2 L4,11 L0,17 L-1,14 L-6,13 L-8,10 L-8,1 Z M-7,2 L-7,9 L-3,13 L0,13 L1,11 L1,4 L-1,4 L-2,2 Z " fill="#B59886" transform="translate(421,357)"/>
<path d="M0,0 L5,1 L0,6 L-5,10 L-9,12 L-13,11 L-9,6 L-8,3 L0,3 Z " fill="#B19086" transform="translate(160,384)"/>
<path d="M0,0 L3,1 L4,29 L1,25 Z " fill="#EBD5C2" transform="translate(378,267)"/>
<path d="M0,0 L24,0 L20,3 L2,5 L2,2 L0,2 Z " fill="#897370" transform="translate(206,336)"/>
<path d="M0,0 L1,3 L3,3 L5,8 L7,9 L6,20 L4,28 L-4,28 L-4,27 L3,27 L3,16 L0,4 Z " fill="#A98E82" transform="translate(441,386)"/>
<path d="M0,0 L3,0 L3,8 L-1,8 L-1,10 L-6,9 L-8,4 L-2,4 Z " fill="#7A716F" transform="translate(403,404)"/>
<path d="M0,0 L4,0 L5,21 L2,18 L1,13 L1,3 L-8,4 L-13,8 L-11,4 L-9,2 L-1,1 Z " fill="#674343" transform="translate(63,360)"/>
<path d="M0,0 L3,1 L4,6 L6,6 L6,11 L10,13 L10,17 L5,15 L2,11 L0,6 Z " fill="#7F5F4A" transform="translate(388,313)"/>
<path d="M0,0 L6,2 L5,5 L7,5 L9,9 L11,10 L11,8 L13,8 L16,13 L19,14 L19,17 L17,17 L16,20 L10,12 L5,8 L3,4 L0,2 Z " fill="#8D5B54" transform="translate(387,186)"/>
<path d="M0,0 L4,1 L-1,7 L-4,8 L-4,10 L-6,10 L-6,8 L-10,7 L-16,2 L-14,1 L-4,5 L-3,2 L0,2 Z " fill="#CFB0B3" transform="translate(80,454)"/>
<path d="M0,0 L7,2 L12,4 L14,12 L9,11 L7,7 L3,6 Z " fill="#5A4A40" transform="translate(308,162)"/>
<path d="M0,0 L8,0 L8,9 L4,10 L0,5 Z " fill="#909299" transform="translate(396,427)"/>
<path d="M0,0 L6,0 L6,10 L16,11 L16,12 L7,12 L6,16 L5,13 L3,12 L2,6 Z " fill="#774E4D" transform="translate(173,294)"/>
<path d="M0,0 L7,6 L10,9 L10,14 L4,12 L2,5 L-3,4 L-2,2 L0,3 Z " fill="#C5B1A2" transform="translate(327,174)"/>
<path d="M0,0 L12,3 L18,5 L18,7 L28,10 L28,11 L19,10 L16,9 L16,7 L6,5 L6,3 L0,2 Z " fill="#5B4C40" transform="translate(280,151)"/>
<path d="M0,0 L1,4 L6,4 L9,12 L11,13 L10,18 L5,14 L5,8 L0,7 Z " fill="#A28E7E" transform="translate(323,174)"/>
<path d="M0,0 L4,1 L1,2 L0,5 L-10,5 L-25,7 L-25,2 L-20,2 L-22,3 L-22,5 L-4,1 Z " fill="#857674" transform="translate(358,420)"/>
<path d="M0,0 L1,4 L-1,15 L-5,29 L-7,29 L-8,31 L-6,21 Z " fill="#83838D" transform="translate(361,446)"/>
<path d="M0,0 L5,0 L7,1 L11,1 L12,8 L8,8 L8,5 L1,5 Z " fill="#CB8289" transform="translate(82,435)"/>
<path d="M0,0 L3,3 L9,12 L8,19 L6,18 L6,16 L4,16 L4,10 L0,6 Z " fill="#E0B1B6" transform="translate(413,219)"/>
<path d="M0,0 L2,0 L3,4 L5,4 L7,7 L7,12 L5,12 L5,15 L2,14 L0,5 Z " fill="#E7CBBA" transform="translate(405,342)"/>
<path d="M0,0 L6,2 L8,4 L8,10 L3,10 L0,5 Z " fill="#5B4533" transform="translate(325,188)"/>
<path d="M0,0 L3,4 L8,16 L7,20 L6,17 L4,20 L0,7 Z " fill="#8C838D" transform="translate(223,478)"/>
<path d="M0,0 L5,0 L2,1 L2,4 L5,4 L6,6 L6,12 L1,12 L0,11 Z " fill="#DCB2B9" transform="translate(96,434)"/>
<path d="M0,0 L4,2 L6,7 L7,17 L3,17 L1,4 Z " fill="#B99D87" transform="translate(382,371)"/>
<path d="M0,0 L2,0 L3,9 L0,9 L0,11 L-2,12 L-4,21 L-6,21 L-4,10 Z " fill="#947D70" transform="translate(320,187)"/>
<path d="M0,0 L6,2 L10,8 L10,11 L8,11 L8,19 L7,19 L6,9 L3,8 Z " fill="#967462" transform="translate(304,117)"/>
<path d="M0,0 L2,0 L2,6 L11,6 L11,8 L3,9 L0,10 L0,12 L-2,12 L-2,5 Z " fill="#886961" transform="translate(264,334)"/>
<path d="M0,0 L2,0 L1,4 L-1,4 L-1,9 L7,9 L7,10 L2,11 L0,15 L-2,15 L-2,18 L-4,18 L-3,7 Z " fill="#BA938C" transform="translate(185,174)"/>
<path d="M0,0 L5,1 L7,8 L1,6 L1,4 L-1,4 L-1,12 L1,13 L-2,13 L-3,9 L-2,2 L0,2 Z " fill="#BFAA9B" transform="translate(320,196)"/>
<path d="M0,0 L2,0 L2,4 L4,4 L5,1 L6,3 L-1,17 L-2,17 L-3,11 L-1,7 L2,7 L2,5 L0,5 Z " fill="#CBC3C2" transform="translate(72,492)"/>
<path d="M0,0 L3,0 L3,8 L5,8 L7,13 L12,12 L12,15 L6,15 L1,10 L0,9 Z " fill="#A27A7B" transform="translate(177,326)"/>
<path d="M0,0 L7,0 L11,8 L13,13 L12,17 L7,5 L1,4 L-1,5 Z " fill="#C1A69C" transform="translate(311,217)"/>
<path d="M0,0 L6,1 L6,4 L-2,10 L-8,12 L-8,9 L-6,9 L-6,7 L0,6 Z " fill="#605857" transform="translate(274,260)"/>
<path d="M0,0 L6,1 L17,5 L26,7 L32,10 L28,11 L22,8 L11,6 L8,4 L2,2 Z " fill="#775B51" transform="translate(216,193)"/>
<path d="M0,0 L3,0 L3,2 L13,4 L13,5 L1,8 L-3,7 L0,7 L-1,2 Z " fill="#A18D86" transform="translate(350,415)"/>
<path d="M0,0 L2,2 L4,12 L4,19 L3,23 L1,23 Z " fill="#866A5C" transform="translate(441,390)"/>
<path d="M0,0 L3,0 L4,2 L4,9 L2,9 L2,11 L-1,11 L-2,6 Z " fill="#704D48" transform="translate(252,170)"/>
<path d="M0,0 L2,0 L5,9 L8,12 L9,17 L6,16 L2,9 L-2,4 L-2,1 Z " fill="#AA9B96" transform="translate(213,416)"/>
<path d="M0,0 L5,0 L6,7 L10,9 L12,10 L12,13 L7,11 L0,2 Z " fill="#856D5D" transform="translate(326,200)"/>
<path d="M0,0 L4,1 L6,4 L6,10 L2,11 L0,5 Z " fill="#9C7F7A" transform="translate(444,371)"/>
<path d="M0,0 L8,1 L12,3 L19,4 L21,9 L8,4 L2,2 Z " fill="#928075" transform="translate(298,157)"/>
<path d="M0,0 L1,0 L3,11 L-5,11 L-4,7 L-2,7 L-1,2 Z " fill="#5B5759" transform="translate(71,507)"/>
<path d="M0,0 L2,2 L5,7 L7,8 L7,20 L5,16 L4,11 L2,11 L0,4 Z " fill="#85605A" transform="translate(511,440)"/>
<path d="M0,0 L4,1 L5,7 L0,8 L-3,7 L-1,1 Z " fill="#E8C5C1" transform="translate(188,173)"/>
<path d="M0,0 L4,0 L4,6 L9,7 L5,8 L-4,4 L-5,2 Z " fill="#A9988B" transform="translate(283,146)"/>
<path d="M0,0 L2,1 L2,3 L20,3 L20,5 L0,5 Z " fill="#51373B" transform="translate(252,254)"/>
<path d="M0,0 L2,0 L3,2 L10,5 L10,8 L4,5 L5,9 L7,12 L3,10 L0,8 Z " fill="#D8C5B5" transform="translate(319,200)"/>
<path d="M0,0 L6,0 L6,8 L0,8 L-1,3 L2,2 L4,3 L4,1 Z " fill="#F3D1D8" transform="translate(104,438)"/>
<path d="M0,0 L1,4 L-2,22 L-4,22 L-4,14 L-2,14 L-2,2 L0,2 Z " fill="#BB9C90" transform="translate(324,250)"/>
<path d="M0,0 L3,1 L4,5 L8,6 L9,7 L9,12 L6,12 L5,9 L1,5 Z " fill="#BFA495" transform="translate(338,167)"/>
<path d="M0,0 L4,0 L5,5 L8,6 L9,10 L5,8 L0,5 Z " fill="#85654E" transform="translate(390,334)"/>
<path d="M0,0 L2,1 L0,4 L-9,5 L-9,8 L-7,9 L-15,8 L-13,5 Z " fill="#4E2A26" transform="translate(227,288)"/>
<path d="M0,0 L5,0 L1,2 L-6,5 L-16,6 L-16,8 L-24,8 L-20,6 L-15,4 L-6,2 Z " fill="#60413E" transform="translate(256,278)"/>
<path d="M0,0 L3,3 L2,5 L1,6 L3,8 L2,11 L-2,7 L-3,5 L-8,3 L-7,1 L0,2 Z " fill="#DAC5B8" transform="translate(334,211)"/>
<path d="M0,0 L10,1 L11,5 L2,5 L2,2 L0,2 Z " fill="#B29D96" transform="translate(318,421)"/>
<path d="M0,0 L1,0 L0,10 L-2,14 L-5,14 L-5,10 L-3,10 L-3,4 Z " fill="#72635E" transform="translate(304,210)"/>
<path d="M0,0 L1,0 L1,13 L-2,14 L-4,19 L-5,15 L-1,1 Z " fill="#47342C" transform="translate(203,196)"/>
<path d="M0,0 L4,2 L10,5 L11,0 L12,2 L14,2 L14,4 L11,4 L11,7 L15,9 L13,9 L12,11 L8,7 L3,4 Z " fill="#905A49" transform="translate(346,146)"/>
<path d="M0,0 L3,1 L3,4 L7,5 L8,10 L8,17 L6,17 L5,9 L1,5 Z " fill="#647998" transform="translate(175,501)"/>
<path d="M0,0 L5,2 L6,5 L8,5 L12,10 L12,12 L17,14 L15,15 L11,14 L7,8 L2,4 Z " fill="#5C4443" transform="translate(68,411)"/>
<path d="M0,0 L3,1 L5,6 L9,11 L1,10 L0,4 Z " fill="#AA856B" transform="translate(344,340)"/>
<path d="M0,0 L3,1 L0,13 L-2,17 L-3,23 L-5,23 L-3,13 L-2,6 Z " fill="#4D3330" transform="translate(283,273)"/>
<path d="M0,0 L3,0 L6,5 L6,8 L0,9 L0,7 L-2,7 L-2,5 L-4,5 L-3,2 L0,5 L3,6 Z " fill="#B09385" transform="translate(419,347)"/>
<path d="M0,0 L18,0 L19,5 L16,8 L13,7 L14,4 L17,4 L17,1 L0,1 Z " fill="#817376" transform="translate(256,259)"/>
<path d="M0,0 L3,1 L5,6 L5,11 L2,11 L0,7 Z " fill="#DEC2B3" transform="translate(434,375)"/>
<path d="M0,0 L1,2 L0,5 L-2,5 L-3,9 L-7,8 L-7,3 L-5,3 L-3,1 Z " fill="#DFD9D6" transform="translate(69,509)"/>
<path d="M0,0 L1,0 L0,7 L2,7 L2,13 L-1,13 L-2,11 L-4,11 L-1,2 Z " fill="#524E51" transform="translate(81,486)"/>
<path d="M0,0 L6,0 L8,3 L8,6 L3,6 L0,3 Z " fill="#6F5851" transform="translate(218,402)"/>
<path d="M0,0 L4,4 L4,9 L1,12 L-7,12 L-7,11 L-1,11 L-1,9 L1,9 Z " fill="#BBA5A0" transform="translate(199,362)"/>
<path d="M0,0 L4,0 L4,3 L8,4 L9,7 L8,9 L3,7 Z " fill="#925F4E" transform="translate(367,163)"/>
<path d="M0,0 L4,1 L4,4 L-1,4 L-1,7 L-5,6 L-5,2 Z " fill="#5C4B47" transform="translate(334,418)"/>
<path d="M0,0 L3,1 L3,3 L1,4 L-2,11 L-2,18 L-4,15 L-4,7 Z " fill="#CFB098" transform="translate(376,356)"/>
<path d="M0,0 L4,2 L6,8 L5,12 L4,10 L2,12 L0,4 Z " fill="#6F626B" transform="translate(220,470)"/>
<path d="M0,0 L3,3 L2,10 L0,16 L-1,16 L-1,2 Z " fill="#786C68" transform="translate(214,424)"/>
<path d="M0,0 L10,3 L9,10 L7,6 L4,6 Z " fill="#6A4F51" transform="translate(58,400)"/>
<path d="M0,0 L2,0 L2,2 L4,2 L4,10 L1,8 L1,6 L-2,5 L-1,1 Z " fill="#B79C8A" transform="translate(386,302)"/>
<path d="M0,0 L4,0 L4,10 L1,11 Z " fill="#8E7F77" transform="translate(312,175)"/>
<path d="M0,0 L2,0 L1,6 L-4,7 L-6,2 Z " fill="#DEC9BC" transform="translate(166,378)"/>
<path d="M0,0 L8,0 L8,3 L0,4 L-1,8 Z " fill="#6F5D59" transform="translate(210,366)"/>
<path d="M0,0 L3,0 L4,6 L9,7 L10,9 L3,7 L2,11 L0,5 Z " fill="#C8B4A6" transform="translate(319,161)"/>
<path d="M0,0 L5,1 L5,7 L1,7 Z " fill="#CAAFA5" transform="translate(453,403)"/>
<path d="M0,0 L3,1 L4,8 L-1,7 L-1,1 Z " fill="#A08675" transform="translate(375,386)"/>
<path d="M0,0 L2,1 L8,16 L8,19 L6,19 L4,12 L2,10 Z " fill="#C18B85" transform="translate(473,334)"/>
<path d="M0,0 L1,0 L1,11 L-3,13 L-7,10 L-3,10 L-2,7 L0,7 Z " fill="#D7D2D8" transform="translate(95,460)"/>
<path d="M0,0 L5,0 L6,5 L1,6 L0,5 Z " fill="#866557" transform="translate(252,363)"/>
<path d="M0,0 L4,2 L11,5 L14,8 L8,8 L4,6 Z " fill="#53403A" transform="translate(194,356)"/>
<path d="M0,0 L3,0 L3,2 L6,1 L18,1 L18,2 L7,2 L7,4 L0,4 Z " fill="#593D3A" transform="translate(184,342)"/>
<path d="M0,0 L2,4 L4,4 L4,6 L9,6 L5,9 L-1,8 Z " fill="#734B47" transform="translate(177,268)"/>
<path d="M0,0 L10,0 L9,2 L5,2 L4,5 L-1,4 Z " fill="#9B867E" transform="translate(324,418)"/>
<path d="M0,0 L2,2 L0,8 L3,9 L1,13 L-4,3 L-4,1 L-2,1 L-2,3 L0,3 Z " fill="#915748" transform="translate(460,295)"/>
<path d="M0,0 L4,4 L5,10 L7,10 L8,14 L3,13 L1,3 Z " fill="#CC9995" transform="translate(436,258)"/>
<path d="M0,0 L1,4 L-6,7 L-5,2 Z " fill="#E7D4CA" transform="translate(346,413)"/>
<path d="M0,0 L3,1 L5,6 L4,10 L0,6 Z " fill="#6E4F3A" transform="translate(388,313)"/>
<path d="M0,0 L3,3 L7,9 L6,11 L1,8 L0,2 Z " fill="#D3A2A1" transform="translate(413,219)"/>
<path d="M0,0 L8,2 L16,5 L16,6 L7,5 L4,4 L4,2 L0,1 Z " fill="#493B32" transform="translate(292,156)"/>
<path d="M0,0 L1,2 L3,2 L4,11 L1,10 Z " fill="#766A65" transform="translate(202,430)"/>
<path d="M0,0 L7,0 L11,5 L0,3 Z " fill="#4E373A" transform="translate(90,428)"/>
<path d="M0,0 L3,1 L5,9 L0,6 L-1,1 Z " fill="#D0B197" transform="translate(387,323)"/>
<path d="M0,0 L2,2 L4,6 L4,9 L-1,8 L-3,6 L-1,6 Z " fill="#8F7566" transform="translate(335,166)"/>
<path d="M0,0 L8,0 L4,2 L-6,5 L-10,4 L-6,2 L0,2 Z " fill="#AD8386" transform="translate(72,80)"/>
<path d="M0,0 L1,0 L1,8 L0,14 L-2,14 L-2,6 Z " fill="#686C7B" transform="translate(486,504)"/>
<path d="M0,0 L2,0 L4,7 L-2,6 L-2,1 Z " fill="#452A22" transform="translate(436,405)"/>
<path d="M0,0 L1,4 L0,6 L2,6 L2,15 L0,12 L-1,9 L-1,2 Z " fill="#464246" transform="translate(73,503)"/>
<path d="M0,0 L1,4 L0,11 L-5,13 L-3,8 Z " fill="#64646E" transform="translate(353,488)"/>
<path d="M0,0 L4,1 L8,6 L6,8 L0,2 Z " fill="#A5837A" transform="translate(99,410)"/>
<path d="M0,0 L2,0 L7,7 L7,9 L4,9 L0,3 Z " fill="#846B63" transform="translate(201,405)"/>
<path d="M0,0 L2,1 L5,10 L5,13 L3,13 L2,17 L1,5 Z " fill="#C3A898" transform="translate(400,326)"/>
<path d="M0,0 L1,2 L-5,16 L-6,12 L-2,2 Z " fill="#5C4B47" transform="translate(301,236)"/>
<path d="M0,0 L1,4 L3,4 L5,7 L5,12 L3,12 L3,8 L1,8 L0,6 Z " fill="#4A6585" transform="translate(223,506)"/>
<path d="M0,0 L2,3 L4,9 L4,13 L2,13 L2,8 L0,8 Z " fill="#BDA8A9" transform="translate(514,451)"/>
<path d="M0,0 L3,0 L4,7 L0,7 Z " fill="#D7999F" transform="translate(90,436)"/>
<path d="M0,0 L2,1 L2,3 L4,3 L4,7 L2,7 L2,9 L0,9 Z " fill="#E8CCC0" transform="translate(442,377)"/>
<path d="M0,0 L2,0 L2,3 L-3,7 L-6,7 L-5,4 L-3,4 L-3,2 Z " fill="#82767A" transform="translate(203,456)"/>
<path d="M0,0 L3,0 L2,4 L1,5 L-4,5 L-4,3 L-2,3 L-2,1 Z " fill="#C6ABA7" transform="translate(122,409)"/>
<path d="M0,0 L2,0 L2,6 L0,8 L-2,6 L-1,1 Z " fill="#E9D2C0" transform="translate(359,396)"/>
<path d="M0,0 L3,0 L3,8 L0,8 Z " fill="#8F7360" transform="translate(381,379)"/>
<path d="M0,0 L5,0 L5,3 L7,5 L-1,4 L-3,2 Z " fill="#413430" transform="translate(187,351)"/>
<path d="M0,0 L4,1 L4,3 L10,2 L9,5 L3,5 L0,2 Z " fill="#5E3A38" transform="translate(156,272)"/>
<path d="M0,0 L5,4 L9,10 L4,9 L1,3 Z " fill="#C49992" transform="translate(378,176)"/>
<path d="M0,0 L9,6 L9,9 L5,7 L5,5 L1,5 Z " fill="#C29789" transform="translate(358,157)"/>
<path d="M0,0 L3,1 L3,3 L7,4 L9,6 L2,6 Z " fill="#5A7695" transform="translate(237,512)"/>
<path d="M0,0 L1,0 L1,7 L-1,7 L-3,13 L-4,9 Z " fill="#878591" transform="translate(352,477)"/>
<path d="M0,0 L4,1 L4,3 L6,3 L6,5 L8,5 L8,7 L4,6 L0,2 Z " fill="#623D36" transform="translate(100,407)"/>
<path d="M0,0 L3,0 L5,5 L5,8 L2,7 L0,4 Z " fill="#E2C2AA" transform="translate(378,349)"/>
<path d="M0,0 L1,0 L1,5 L5,6 L2,6 L2,10 L-1,10 Z " fill="#AB8586" transform="translate(187,326)"/>
<path d="M0,0 L10,1 L13,3 L2,2 L1,5 L0,3 L-2,2 L0,2 Z " fill="#7C6058" transform="translate(240,194)"/>
<path d="M0,0 L4,2 L7,4 L7,7 L3,6 L3,4 L1,4 Z " fill="#AFA8A6" transform="translate(395,412)"/>
<path d="M0,0 L4,2 L5,5 L4,6 L-1,6 Z " fill="#462D29" transform="translate(142,256)"/>
<path d="M0,0 L3,1 L3,3 L5,4 L3,4 L3,7 L0,7 L-1,3 Z " fill="#8D8178" transform="translate(235,131)"/>
<path d="M0,0 L3,0 L2,6 L-1,6 L-1,1 Z " fill="#B5B8BE" transform="translate(401,428)"/>
<path d="M0,0 L10,3 L6,4 L5,6 L0,2 Z " fill="#7B635F" transform="translate(200,362)"/>
<path d="M0,0 L1,4 L-1,10 L-3,10 L-3,5 Z " fill="#C6B2A9" transform="translate(309,224)"/>
<path d="M0,0 L7,1 L7,4 L3,5 Z " fill="#8E776B" transform="translate(326,217)"/>
<path d="M0,0 L3,0 L3,6 L-2,6 L-2,3 L1,5 Z " fill="#D8A2AB" transform="translate(99,440)"/>
<path d="M0,0 L1,2 L1,5 L3,7 L-7,7 L-3,5 L-1,5 Z " fill="#735B56" transform="translate(119,416)"/>
<path d="M0,0 L5,0 L5,3 L1,4 L0,6 Z " fill="#816C66" transform="translate(210,413)"/>
<path d="M0,0 L2,0 L2,7 L1,3 L-2,5 L-4,8 L-3,3 Z " fill="#D8BEAE" transform="translate(360,393)"/>
<path d="M0,0 L2,1 L2,7 L-2,8 L-2,5 L0,5 Z " fill="#B69793" transform="translate(448,374)"/>
<path d="M0,0 L3,4 L3,10 L0,10 L-1,7 L1,7 Z " fill="#CF9C99" transform="translate(481,353)"/>
<path d="M0,0 L2,2 L4,6 L3,10 L2,7 L0,7 Z " fill="#D4A29B" transform="translate(452,288)"/>
<path d="M0,0 L6,2 L8,6 L5,4 L-1,3 Z " fill="#63483D" transform="translate(224,213)"/>
<path d="M0,0 L4,0 L4,3 L-5,3 L-2,1 Z " fill="#CDBBBA" transform="translate(325,423)"/>
<path d="M0,0 L3,0 L4,5 L2,6 L2,3 L0,3 L0,8 L-1,8 L-1,2 Z " fill="#7E5454" transform="translate(67,360)"/>
<path d="M0,0 L4,2 L7,4 L7,6 L2,5 Z " fill="#BB9691" transform="translate(143,253)"/>
<path d="M0,0 L10,3 L12,5 L3,4 Z " fill="#625049" transform="translate(244,136)"/>
<path d="M0,0 L3,1 L2,6 L-1,6 L-1,1 Z " fill="#B4BFCE" transform="translate(337,512)"/>
<path d="M0,0 L5,1 L7,5 L2,3 L0,2 Z " fill="#BAA09D" transform="translate(140,264)"/>
<path d="M0,0 L5,5 L4,7 L-1,5 Z " fill="#C99E9F" transform="translate(398,199)"/>
<path d="M0,0 L3,0 L1,7 L-1,8 Z " fill="#B7B4B5" transform="translate(83,478)"/>
<path d="M0,0 L5,1 L3,5 L1,9 L2,1 Z " fill="#4E3B3C" transform="translate(66,402)"/>
<path d="M0,0 L2,1 L-2,2 L-3,5 L-6,6 L-6,3 L-4,3 L-4,1 Z " fill="#746867" transform="translate(272,266)"/>
<path d="M0,0 L3,4 L4,8 L0,7 Z " fill="#CDA09D" transform="translate(431,248)"/>
<path d="M0,0 L2,2 L7,4 L6,6 L0,4 Z " fill="#B09C8E" transform="translate(325,212)"/>
<path d="M0,0 L4,2 L5,6 L2,6 Z " fill="#CFB7A7" transform="translate(342,173)"/>
<path d="M0,0 L3,1 L2,5 L-3,5 L-3,3 L0,3 Z " fill="#BD968D" transform="translate(190,169)"/>
<path d="M0,0 L1,2 L0,5 L-2,5 L-3,7 L-4,1 Z " fill="#C0BAB9" transform="translate(69,509)"/>
<path d="M0,0 L4,0 L3,5 L0,3 Z " fill="#7E96BB" transform="translate(310,506)"/>
<path d="M0,0 L3,4 L2,7 L0,6 L-2,1 Z " fill="#8A7F7C" transform="translate(219,426)"/>
<path d="M0,0 L3,0 L3,6 L1,6 Z " fill="#F4E3D7" transform="translate(323,170)"/>
<path d="M0,0 L1,0 L1,5 L-3,6 L-3,3 Z " fill="#CCB09B" transform="translate(377,376)"/>
<path d="M0,0 L3,0 L3,5 L0,5 Z " fill="#B29989" transform="translate(252,363)"/>
<path d="M0,0 L2,0 L5,5 L4,7 L1,6 Z " fill="#5D3637" transform="translate(181,332)"/>
<path d="M0,0 L3,1 L3,9 L2,9 Z " fill="#B6AAA2" transform="translate(312,175)"/>
<path d="M0,0 L5,2 L6,5 L2,4 Z " fill="#A38F82" transform="translate(327,172)"/>
<path d="M0,0 L3,0 L4,5 L1,5 Z " fill="#564742" transform="translate(200,427)"/>
<path d="M0,0 L7,2 L7,4 L0,3 Z " fill="#7A5557" transform="translate(83,426)"/>
<path d="M0,0 L2,0 L1,4 L-2,4 L-2,1 Z " fill="#97867F" transform="translate(213,416)"/>
<path d="M0,0 L3,1 L3,6 L1,6 Z " fill="#95755E" transform="translate(380,362)"/>
<path d="M0,0 L4,2 L6,5 L2,4 Z " fill="#BB967B" transform="translate(347,346)"/>
<path d="M0,0 L1,3 L-2,5 L-5,4 Z " fill="#65514E" transform="translate(274,306)"/>
<path d="M0,0 L5,4 L4,6 L1,6 Z " fill="#C79899" transform="translate(403,206)"/>
<path d="M0,0 L6,2 L6,3 L-1,3 Z " fill="#CEC2BE" transform="translate(178,351)"/>
<path d="M0,0 L2,0 L1,5 L-1,5 Z " fill="#7E5B58" transform="translate(167,273)"/>
<path d="M0,0 L3,2 L3,6 L1,6 Z " fill="#B89883" transform="translate(343,239)"/>
<path d="M0,0 L2,1 L3,7 L0,5 Z " fill="#CAAEA1" transform="translate(339,216)"/>
<path d="M0,0 L0,3 L-1,6 L-3,6 L-2,1 Z " fill="#886259" transform="translate(167,210)"/>
<path d="M0,0 L3,0 L4,6 L0,2 Z " fill="#998371" transform="translate(326,200)"/>
<path d="M0,0 L4,2 L1,3 L1,5 L-1,5 Z " fill="#AA9385" transform="translate(319,193)"/>
<path d="M0,0 L5,1 L6,3 L2,4 Z " fill="#D0A191" transform="translate(339,143)"/>
<path d="M0,0 L3,0 L3,4 L0,4 Z " fill="#F2B1B9" transform="translate(91,439)"/>
<path d="M0,0 L2,0 L1,5 L-1,5 Z " fill="#FCE7D7" transform="translate(359,396)"/>
<path d="M0,0 L4,0 L4,3 L0,3 Z " fill="#534948" transform="translate(283,183)"/>
<path d="M0,0 L5,1 L4,3 L0,3 Z " fill="#887565" transform="translate(323,181)"/>
<path d="M0,0 L4,0 L4,2 L2,2 L2,4 L0,4 Z " fill="#605651" transform="translate(310,173)"/>
<path d="M0,0 L2,1 L1,6 L-1,2 Z " fill="#C5C1BF" transform="translate(78,487)"/>
<path d="M0,0 L2,0 L2,4 L-1,4 Z " fill="#CFA9A9" transform="translate(189,326)"/>
<path d="M0,0 L3,0 L2,5 L0,3 Z " fill="#C3C4D0" transform="translate(340,508)"/>
<path d="M0,0 L3,1 L3,4 L0,3 Z " fill="#F6BFC7" transform="translate(97,441)"/>
<path d="M0,0 L2,0 L3,4 L0,4 Z " fill="#EBA1A6" transform="translate(84,435)"/>
<path d="M0,0 L3,1 L3,4 L0,3 Z " fill="#5E4F4A" transform="translate(191,425)"/>
<path d="M0,0 L4,1 L4,4 Z " fill="#512D25" transform="translate(77,386)"/>
<path d="M0,0 L4,0 L4,3 L1,3 Z " fill="#5A4A48" transform="translate(214,366)"/>
<path d="M0,0 L3,2 L3,4 L0,4 Z " fill="#C99FA1" transform="translate(178,332)"/>
<path d="M0,0 L2,0 L1,4 L-1,4 Z " fill="#B89F9D" transform="translate(262,272)"/>
<path d="M0,0 L3,0 L3,3 L0,3 Z " fill="#936158" transform="translate(169,260)"/>
<path d="M0,0 L4,4 L0,3 Z " fill="#997464" transform="translate(331,258)"/>
<path d="M0,0 L4,1 L4,3 L0,2 Z " fill="#CBACAA" transform="translate(146,256)"/>
</svg>
